<svg width="60" height="60" viewBox="0 0 60 60" fill="none" xmlns="http://www.w3.org/2000/svg">
<g id="chat_3032996 1" clip-path="url(#clip0_3222_148)">
<g id="Layer_x0020_1">
<g id="_328503576">
<g id="Group">
<path id="_328503432" fill-rule="evenodd" clip-rule="evenodd" d="M9.63863 21.277C9.47115 21.277 9.30644 21.2094 9.18644 21.0901C9.06782 20.9708 9 20.8079 9 20.6386C9 20.4703 9.06754 20.307 9.18644 20.1864C9.30644 20.0678 9.47115 20 9.63863 20C9.80735 20 9.97012 20.0675 10.0908 20.1864C10.2094 20.3064 10.2773 20.4698 10.2773 20.6386C10.2773 20.8072 10.2097 20.9701 10.0908 21.0901C9.97151 21.2094 9.8068 21.277 9.63863 21.277Z" fill="white"/>
</g>
<g id="Group_2">
<path id="_328505304" d="M16.9 32.5537C16.9 32.9613 17.2296 33.2921 17.6379 33.2921C18.046 33.2921 18.3764 32.9607 18.3763 32.5537C18.3763 32.5537 18.3763 32.5537 18.3763 32.5537V22.3415C18.3763 21.9335 18.0452 21.6031 17.6379 21.6031C17.2304 21.6031 16.9 21.9335 16.9 22.3415V32.5537Z" fill="white" stroke="white" stroke-width="0.2"/>
</g>
<g id="Group_3">
<path id="_328502112" d="M3.51074 49.7872C3.51074 48.0277 4.94233 46.5957 6.70236 46.5957C8.4624 46.5957 9.89398 48.0277 9.89398 49.7872M3.51074 49.7872H9.89398M3.51074 49.7872C3.51074 49.7872 3.51074 49.7872 3.51074 49.7872ZM3.51074 49.7872C3.51074 51.5468 4.94219 52.9788 6.70236 52.9788C8.46253 52.9788 9.89398 51.5468 9.89398 49.7872M3.51074 49.7872H-140.107C-140.107 130.862 -74.3891 196.596 6.70236 196.596L9.89398 49.7872M6.70236 47.8727C5.64643 47.8727 4.78773 48.7317 4.78772 49.7872H8.617C8.617 48.7314 7.75816 47.8727 6.70236 47.8727Z" fill="#FF5500" stroke="#FF5500" stroke-width="300.001"/>
</g>
<g id="Group_4">
<path id="_328502352" fill-rule="evenodd" clip-rule="evenodd" d="M53.9363 52.9788C52.1761 52.9788 50.7441 51.5468 50.7441 49.7872C50.7441 48.0277 52.1761 46.5957 53.9363 46.5957C55.6952 46.5957 57.1275 48.0277 57.1275 49.7872C57.1275 51.5468 55.6955 52.9788 53.9363 52.9788ZM53.9363 47.8727C52.8798 47.8727 52.0211 48.7317 52.0211 49.7872C52.0211 50.8429 52.8801 51.7025 53.9363 51.7025C54.9916 51.7025 55.8505 50.8431 55.8505 49.7872C55.8505 48.7314 54.9918 47.8727 53.9363 47.8727Z" fill="white"/>
</g>
<g id="Group_5">
<path id="_328504848" d="M57.7662 12.1281C57.7662 13.8884 56.334 15.3204 54.5751 15.3204C52.8151 15.3204 51.3832 13.8887 51.3829 12.1286L50.106 12.1287C50.1066 14.5925 52.1116 16.596 54.5751 16.596C57.0375 16.596 59.0427 14.5922 59.043 12.1281C59.043 12.1281 59.043 12.1276 59.043 12.1276C59.043 9.66386 57.0377 7.65967 54.5751 7.65967C52.1106 7.65967 50.106 9.66429 50.106 12.1276C50.106 12.1278 50.106 12.128 50.106 12.1281H51.3829C51.3829 12.128 51.3829 12.1278 51.3829 12.1276C51.3832 10.3684 52.8151 8.93708 54.5751 8.93708C56.3339 8.93708 57.7657 10.3689 57.7662 12.1281ZM57.7662 12.1281C57.7662 12.128 57.7662 12.1283 57.7662 12.1281Z" fill="#FF5500" stroke="#FF5500" stroke-width="300.001"/>
</g>
<g id="Group_6">
<path id="_328504632" d="M30.8941 25.2237L30.8942 25.2236L31.9671 23.0785H33.4254C35.5924 23.0785 37.355 21.3153 37.355 19.1484C37.355 16.9814 35.5924 15.2188 33.4254 15.2188H16.8301C14.6626 15.2188 12.9 16.9814 12.9 19.1484C12.9 21.3154 14.6631 23.0785 16.8301 23.0785H27.9498L29.6435 25.3367C29.6435 25.3367 29.6435 25.3367 29.6435 25.3367C29.7837 25.5236 30.0027 25.6318 30.234 25.6318C30.2546 25.6318 30.2772 25.631 30.2997 25.6289C30.5553 25.6064 30.7794 25.4519 30.8941 25.2237ZM30.851 22.0109L30.851 22.011L30.108 23.4954L28.91 21.8979C28.7706 21.7113 28.5514 21.6026 28.319 21.6026L16.8301 21.6029C15.4775 21.6029 14.377 20.5018 14.377 19.1491C14.377 17.7963 15.4774 16.6958 16.8301 16.6958L33.4259 16.6962C34.7787 16.6962 35.8798 17.7967 35.8798 19.1495C35.8798 20.5023 34.7787 21.6033 33.4259 21.6033L31.5112 21.6029C31.2317 21.6029 30.9762 21.7614 30.851 22.0109Z" fill="#FF5500" stroke="#FF5500" stroke-width="0.2"/>
</g>
<g id="Group_7">
<path id="_328503168" fill-rule="evenodd" clip-rule="evenodd" d="M5.4253 17.8729C2.96144 17.8729 0.95752 15.8687 0.95752 13.4043C0.95752 10.9411 2.96171 8.93652 5.4253 8.93652C7.8886 8.93652 9.89322 10.9407 9.89322 13.4043C9.89391 15.8687 7.88917 17.8729 5.4253 17.8729ZM5.4253 10.2132C3.66513 10.2132 2.23382 11.6452 2.23382 13.4048C2.23382 15.165 3.66541 16.5963 5.4253 16.5963C7.18492 16.5963 8.61692 15.1647 8.61692 13.4048C8.61706 11.6448 7.18547 10.2132 5.4253 10.2132Z" fill="white"/>
</g>
<g id="Group 68">
<g id="Group_8">
<path id="_328503264" d="M19.5855 51.1643H40.9686C42.5189 51.1643 43.7807 49.9027 43.7804 48.3519V7.18168C43.7804 5.63022 42.5188 4.36924 40.9686 4.36924H35.3835C34.9759 4.36924 34.6452 4.69886 34.6452 5.10703C34.6452 6.10817 33.8312 6.92237 32.83 6.92237H27.7237C26.7233 6.92237 25.9091 6.10845 25.9091 5.10703C25.9091 4.69897 25.5792 4.36924 25.1712 4.36924H19.5861C18.0354 4.36924 16.7737 5.63021 16.7737 7.18168V15.9587C16.7737 16.3668 17.1037 16.6967 17.5115 16.6967C17.9193 16.6967 18.2499 16.3668 18.2499 15.9587V7.18168C18.2499 6.44506 18.8495 5.84539 19.5861 5.84539L24.516 5.84525C24.8524 7.30596 26.1626 8.39907 27.7242 8.39907L32.8306 8.39934C34.3918 8.39934 35.7018 7.30593 36.0388 5.84538H40.9686C41.7043 5.84538 42.3049 6.44444 42.3049 7.18167V48.3519C42.3049 49.0878 41.7047 49.6874 40.9686 49.6874H19.5855C18.8488 49.6874 18.2493 49.0885 18.2493 48.3519V38.9362C18.2493 38.528 17.9182 38.1983 17.511 38.1983C17.1036 38.1983 16.773 38.5281 16.773 38.9362V48.3519C16.773 49.9027 18.0347 51.1643 19.5855 51.1643Z" fill="white" stroke="white" stroke-width="0.2"/>
</g>
<g id="Group_9">
<path id="_331338440" d="M30.277 53.8048C29.6332 53.8048 29.1089 54.329 29.1089 54.9736C29.1089 55.6174 29.6331 56.1416 30.277 56.1416C30.9208 56.1416 31.4457 55.6173 31.4457 54.9737L30.277 53.8048ZM30.277 53.8048C30.9205 53.8048 31.4454 54.329 31.4457 54.9736L30.277 53.8048ZM32.9224 54.9742V54.9742C32.9224 53.5151 31.736 52.3292 30.277 52.3292C28.8183 52.3292 27.6319 53.5152 27.6319 54.9742C27.6319 56.4326 28.8183 57.6186 30.277 57.6186C31.7361 57.6186 32.9217 56.4319 32.9224 54.9742Z" fill="#FF5500" stroke="#FF5500" stroke-width="0.2"/>
</g>
<path id="_331343840" d="M46.1338 54.2125V54.2124L46.1763 30.1653V30.165L46.1338 8.31606V8.31586V5.78723C46.1338 3.35576 44.1559 1.37699 41.7236 1.37699H18.7867C16.3552 1.37699 14.3764 3.3551 14.3764 5.78723V32.553C14.3764 32.9611 14.046 33.2914 13.6381 33.2914C13.2301 33.2914 12.9001 32.9607 12.9001 32.553V5.78723C12.9001 2.54094 15.5411 -0.1 18.7874 -0.1H41.724C44.9704 -0.1 47.6112 2.54095 47.6112 5.78723V8.31428V8.31448L47.6537 30.1647L47.6537 30.1651L47.6112 54.2134L46.1338 54.2125ZM46.1338 54.2125C46.1338 56.6451 44.1552 58.6232 41.7236 58.6232H18.7865C16.3549 58.6232 14.3763 56.6446 14.3763 54.2129V38.9361C14.3763 38.5279 14.0451 38.1982 13.6378 38.1982C13.2305 38.1982 12.9 38.528 12.9 38.9361V54.2129C12.9 57.4592 15.5408 60.1002 18.7871 60.1002H41.724M46.1338 54.2125L41.724 60.1002M41.724 60.1002C44.9704 60.1002 47.6111 57.4593 47.6112 54.2135L41.724 60.1002Z" fill="white" stroke="white" stroke-width="0.2"/>
<path id="_328502760" d="M21.4676 41.8106L21.4677 41.8107C21.6071 41.9941 21.824 42.1 22.0528 42.1C22.0736 42.1 22.0956 42.0992 22.1175 42.0973L22.1176 42.0973C22.3697 42.0746 22.5926 41.9242 22.7061 41.6997L22.7061 41.6997L23.7673 39.6001H25.2102C27.3545 39.6001 29.1 37.874 29.1 35.7496C29.1 33.6258 27.3538 31.9 25.2102 31.9H8.78929C6.64552 31.9 4.9 33.6258 4.9 35.7496C4.9 37.8742 6.64551 39.6001 8.78929 39.6001H19.7926L21.4676 41.8106ZM22.6613 38.5513L22.6613 38.5514L21.9273 40.0036L20.7426 38.4403C20.6042 38.2571 20.3871 38.1508 20.1573 38.1508L8.78927 38.1511C7.45028 38.1511 6.36284 37.0732 6.36284 35.7503C6.36284 34.4278 7.45024 33.3504 8.78927 33.3504L25.2101 33.3508C26.549 33.3508 27.6364 34.4284 27.6364 35.7507C27.6364 37.0739 26.549 38.1515 25.2102 38.1515L23.3154 38.1511C23.0389 38.1511 22.7856 38.3062 22.6613 38.5513Z" fill="#FF5500" stroke="#FF5500" stroke-width="0.2"/>
<g id="Group_10">
<path id="_328504152" d="M43.0422 46.6963H17.511C17.1027 46.6963 16.773 46.3656 16.773 45.958C16.773 45.5501 17.1035 45.2196 17.511 45.2196L43.0422 46.6963ZM43.0422 46.6963C43.4515 46.6963 43.7805 46.3654 43.7805 45.9577C43.7805 45.5499 43.4514 45.2193 43.0422 45.2193L17.511 45.2196L43.0422 46.6963Z" fill="white" stroke="white" stroke-width="0.2"/>
</g>
<g id="Group_11">
<path id="_328505376" d="M32.8299 43.5041H43.042C43.4513 43.5041 43.7803 43.1736 43.7803 42.7658C43.7803 42.3582 43.4513 42.0274 43.042 42.0274H32.8299C32.422 42.0274 32.0914 42.358 32.0914 42.7658C32.0914 43.1737 32.4217 43.5041 32.8299 43.5041Z" fill="white" stroke="white" stroke-width="0.2"/>
</g>
<g id="Group_12">
<path id="_328504584" d="M32.8299 40.3125H43.042C43.4513 40.3125 43.7803 39.9816 43.7803 39.5739C43.7803 39.1661 43.4513 38.8355 43.042 38.8355L32.8299 38.8358C32.8299 38.8358 32.8299 38.8358 32.8299 38.8358C32.422 38.8358 32.0914 39.1662 32.0914 39.5742C32.0914 39.9819 32.4217 40.3125 32.8299 40.3125Z" fill="white" stroke="white" stroke-width="0.2"/>
</g>
<g id="Group_13">
<path id="_328504224" d="M32.8299 37.1211H43.042C43.4513 37.1211 43.7803 36.7902 43.7803 36.3825C43.7803 35.9749 43.4513 35.6441 43.042 35.6441L32.8299 35.6444C32.8299 35.6444 32.8299 35.6444 32.8299 35.6444C32.422 35.6444 32.0914 35.9748 32.0914 36.3828C32.0914 36.7907 32.4217 37.1211 32.8299 37.1211Z" fill="white" stroke="white" stroke-width="0.2"/>
</g>
<g id="Group_14">
<path id="_328504896" d="M32.8299 33.9304H43.042C43.4513 33.9304 43.7803 33.5997 43.7803 33.1921C43.7803 32.7843 43.4513 32.4537 43.042 32.4537H32.8299C32.422 32.4537 32.0914 32.7841 32.0914 33.1921C32.0914 33.5998 32.4217 33.9304 32.8299 33.9304Z" fill="white" stroke="white" stroke-width="0.2"/>
</g>
</g>
</g>
</g>
</g>
<defs>
<clipPath id="clip0_3222_148">
<rect width="60" height="60" fill="white"/>
</clipPath>
</defs>
</svg>
