<svg width="60" height="60" viewBox="0 0 60 60" fill="none" xmlns="http://www.w3.org/2000/svg">
<g id="files_1187775 1">
<path id="Vector" d="M56.8346 9.60938C56.8346 4.31076 52.5238 0 47.2252 0C43.0788 0 39.5375 2.64038 38.1935 6.32812H15C14.6892 6.32812 14.3907 6.45172 14.171 6.67191L3.50693 17.3511C3.2872 17.5708 3.16406 17.8683 3.16406 18.1792V55.0781C3.16406 57.7922 5.37186 60 8.08594 60H43.2422C45.9563 60 48.1641 57.7922 48.1641 55.0781V19.1725C53.0237 18.6987 56.8346 14.5912 56.8346 9.60938ZM13.8281 10.3317V14.4292C13.8281 15.8505 12.6718 17.0073 11.25 17.0073H7.16217L13.8281 10.3317ZM43.2422 57.6562H8.08594C6.66412 57.6562 5.50781 56.4999 5.50781 55.0781V19.351H11.25C13.9641 19.351 16.1719 17.1428 16.1719 14.4292V8.67188H37.6625C37.6323 8.98041 37.6158 9.29306 37.6158 9.60938C37.6158 14.4305 41.1855 18.4328 45.8203 19.1148V55.0781C45.8203 56.4999 44.664 57.6562 43.2422 57.6562ZM47.2252 16.875C43.2193 16.875 39.9596 13.6157 39.9596 9.60938C39.9596 5.60303 43.2193 2.34375 47.2252 2.34375C51.2315 2.34375 54.4908 5.60303 54.4908 9.60938C54.4908 13.6157 51.2315 16.875 47.2252 16.875Z" fill="white"/>
<path id="Vector_2" d="M47.2251 8.4375C46.5783 8.4375 46.0532 8.9621 46.0532 9.60938V12.8471C46.0532 13.494 46.5783 14.019 47.2251 14.019C47.8724 14.019 48.397 13.494 48.397 12.8471V9.60938C48.397 8.9621 47.8724 8.4375 47.2251 8.4375Z" fill="#FF5500"/>
<path id="Vector_3" d="M47.2246 7.03125C47.5341 7.03125 47.8353 6.90582 48.0541 6.68793C48.2724 6.47003 48.3965 6.16745 48.3965 5.85938C48.3965 5.5513 48.2724 5.24872 48.0541 5.03082C47.8353 4.81293 47.5341 4.6875 47.2246 4.6875C46.9165 4.6875 46.6153 4.81293 46.3961 5.03082C46.1782 5.24872 46.0527 5.5513 46.0527 5.85938C46.0527 6.16745 46.1782 6.47003 46.3961 6.68793C46.6153 6.90582 46.9165 7.03125 47.2246 7.03125Z" fill="#FF5500"/>
<path id="Vector_4" d="M36.2094 23.9062H15.2471C14.6003 23.9062 14.0752 24.4308 14.0752 25.0781C14.0752 25.7254 14.6003 26.25 15.2471 26.25H36.2094C36.8567 26.25 37.3813 25.7254 37.3813 25.0781C37.3813 24.4308 36.8567 23.9062 36.2094 23.9062Z" fill="#FF5500"/>
<path id="Vector_5" d="M36.2094 32.3438H20.8647C20.2175 32.3438 19.6929 32.8683 19.6929 33.5156C19.6929 34.1629 20.2175 34.6875 20.8647 34.6875H36.2094C36.8567 34.6875 37.3813 34.1629 37.3813 33.5156C37.3813 32.8683 36.8567 32.3438 36.2094 32.3438Z" fill="white"/>
<path id="Vector_6" d="M36.2097 40.7812H15.1187C14.4714 40.7812 13.9468 41.3058 13.9468 41.9531C13.9468 42.6004 14.4714 43.125 15.1187 43.125H36.2097C36.8569 43.125 37.3815 42.6004 37.3815 41.9531C37.3815 41.3058 36.8569 40.7812 36.2097 40.7812Z" fill="#FF5500"/>
<path id="Vector_7" d="M15.1191 49.2188C14.8097 49.2188 14.5076 49.3442 14.2892 49.5621C14.0713 49.78 13.9473 50.0826 13.9473 50.3906C13.9473 50.6987 14.0713 51.0013 14.2892 51.2192C14.5076 51.4371 14.8097 51.5625 15.1191 51.5625C15.4272 51.5625 15.7298 51.4371 15.9477 51.2192C16.1656 51.0013 16.291 50.6987 16.291 50.3906C16.291 50.0826 16.1656 49.78 15.9477 49.5621C15.7293 49.3442 15.4272 49.2188 15.1191 49.2188Z" fill="#FF5500"/>
<path id="Vector_8" d="M15.9477 34.3442C16.1656 34.1263 16.291 33.8237 16.291 33.5156C16.291 33.2076 16.1656 32.905 15.9477 32.6871C15.7298 32.4692 15.4272 32.3438 15.1191 32.3438C14.8097 32.3438 14.5076 32.4692 14.2892 32.6871C14.0713 32.905 13.9473 33.2076 13.9473 33.5156C13.9473 33.8237 14.0713 34.1263 14.2892 34.3442C14.5076 34.5621 14.8097 34.6875 15.1191 34.6875C15.4272 34.6875 15.7293 34.5621 15.9477 34.3442Z" fill="white"/>
<path id="Vector_9" d="M36.2094 49.2188H20.8647C20.2175 49.2188 19.6929 49.7433 19.6929 50.3906C19.6929 51.0379 20.2175 51.5625 20.8647 51.5625H36.2094C36.8567 51.5625 37.3813 51.0379 37.3813 50.3906C37.3813 49.7433 36.8567 49.2188 36.2094 49.2188Z" fill="#FF5500"/>
</g>
</svg>
