<svg width="60" height="60" viewBox="0 0 60 60" fill="none" xmlns="http://www.w3.org/2000/svg">
<g id="dialog_16520048 1" clip-path="url(#clip0_3222_184)">
<g id="Group">
<path id="Vector" d="M38.4375 22.5H42.1875V26.25H43.9688L47.9062 22.5H58.2187C58.7812 22.5 59.1562 22.125 59.1562 21.5625V1.875C59.1562 1.3125 58.7812 0.9375 58.2187 0.9375H33.75C33.1875 0.9375 32.8125 1.3125 32.8125 1.875V5.625" stroke="#FF5500" stroke-width="2" stroke-miterlimit="10"/>
<path id="Vector_2" d="M41.25 12.1875H43.125" stroke="#FF5500" stroke-width="2" stroke-miterlimit="10"/>
<path id="Vector_3" d="M45 12.1875H46.875" stroke="#FF5500" stroke-width="2" stroke-miterlimit="10"/>
<path id="Vector_4" d="M48.75 12.1875H50.625" stroke="#FF5500" stroke-width="2" stroke-miterlimit="10"/>
<g id="Group_2">
<path id="Vector_5" d="M21.5625 22.5H17.8125V26.25H16.0313L12.1875 22.5H1.875C1.3125 22.5 0.9375 22.125 0.9375 21.5625V1.875C0.9375 1.3125 1.3125 0.9375 1.875 0.9375H26.25C26.8125 0.9375 27.1875 1.3125 27.1875 1.875V5.625" stroke="white" stroke-width="2" stroke-miterlimit="10"/>
<path id="Vector_6" d="M18.75 12.1875H16.875" stroke="white" stroke-width="2" stroke-miterlimit="10"/>
<path id="Vector_7" d="M15 12.1875H13.125" stroke="white" stroke-width="2" stroke-miterlimit="10"/>
<path id="Vector_8" d="M11.25 12.1875H9.375" stroke="white" stroke-width="2" stroke-miterlimit="10"/>
</g>
<g id="Group_3">
<g id="Group_4">
<path id="Vector_9" d="M40.3125 52.3125V60" stroke="white" stroke-width="2" stroke-miterlimit="10"/>
<path id="Vector_10" d="M34.125 22.875V28.125L43.3125 30.9375C44.9063 31.4063 46.0312 32.7188 46.2187 34.4063L46.9687 40.5937V49.4063C46.9687 51.2813 45.375 52.875 43.5 52.875C42.1875 52.875 28.2188 49.5 28.2188 49.5" stroke="white" stroke-width="2" stroke-miterlimit="10"/>
<path id="Vector_11" d="M40.3125 40.125L40.4062 46.6875H38.4375C33.375 48 17.625 52.875 16.5938 52.875C14.7188 52.875 13.125 51.2813 13.125 49.4063V40.5937L13.875 34.4063C14.0625 32.8125 15.1875 31.4062 16.7812 30.9375L25.9688 28.125V24.75V23.0625L25.5937 22.6875C24.6562 21.6563 24 20.3438 23.7187 18.9375L23.625 18.5625C23.5313 18.0937 23.5313 17.625 23.5313 17.1562V13.9687C23.5313 10.4062 26.4375 7.5 30 7.5C33.5625 7.5 36.4688 10.4062 36.4688 13.9687V14.4375V17.25C36.4688 17.7187 36.4687 18.1875 36.375 18.6562L36.2813 19.0312C36 20.4375 35.3438 21.75 34.4063 22.7812C33.4688 23.8125 32.25 24.5625 30.9375 24.9375C30.375 25.125 29.7188 25.125 29.1563 24.9375" stroke="white" stroke-width="2" stroke-miterlimit="10"/>
<path id="Vector_12" d="M16.875 45.75H17.8125L25.3125 44.8125L32.8125 43.875H37.5" stroke="white" stroke-width="2" stroke-miterlimit="10"/>
<path id="Vector_13" d="M25.875 28.2188V31.6875H27.1875L29.7188 29.8125H30.6563L32.8125 31.6875H34.125V28.2188" stroke="white" stroke-width="2" stroke-miterlimit="10"/>
<path id="Vector_14" d="M30 33.5625V42" stroke="white" stroke-width="2" stroke-miterlimit="10"/>
<path id="Vector_15" d="M30 52.5V54.375" stroke="white" stroke-width="2" stroke-miterlimit="10"/>
<path id="Vector_16" d="M30 56.25V58.125" stroke="white" stroke-width="2" stroke-miterlimit="10"/>
<path id="Vector_17" d="M19.6875 52.3125V60" stroke="white" stroke-width="2" stroke-miterlimit="10"/>
</g>
<path id="Vector_18" d="M19.6875 40.125L19.7813 45.75" stroke="white" stroke-width="2" stroke-miterlimit="10"/>
</g>
</g>
</g>
<defs>
<clipPath id="clip0_3222_184">
<rect width="60" height="60" fill="white"/>
</clipPath>
</defs>
</svg>
