<svg width="60" height="60" viewBox="0 0 60 60" fill="none" xmlns="http://www.w3.org/2000/svg">
<g id="cursor_2334185 1" clip-path="url(#clip0_3222_213)">
<path id="Vector" d="M44.3685 53.3197L45.2204 54.8612L36.9553 59.4284L33.224 52.6761L33.0305 52.326L32.6804 52.5194L27.3338 55.474L27.1643 53.0977L27.1378 52.7262H26.7653H0.4V0.427832H59.6V52.7262H44.7186H44.0406L44.3685 53.3197ZM40.0815 3.79871L40.6246 3.14346H39.7736H3.51562H3.11562V3.54346V11.5246V11.9246H3.51562H33.1587H33.3467L33.4666 11.7799L40.0815 3.79871ZM37.8254 55.388L38.0188 55.7381L38.3689 55.5446L41.1799 53.9912L41.53 53.7977L41.3365 53.4476L37.6052 46.6954L41.4111 44.5922L41.959 44.2894L41.4541 43.9194L29.2544 34.9805L28.5575 34.4699L28.619 35.3316L29.6956 50.4173L29.7401 51.0417L30.288 50.7389L34.0941 48.6357L37.8254 55.388ZM56.4844 50.0107H56.8844V49.6107V3.54357V3.14357H56.4844H44.3396H44.1516L44.0317 3.28832L34.623 14.6404H3.51562H3.11562V15.0404V49.6107V50.0107H3.51562H26.5145H26.9441L26.9135 49.5822L25.4314 28.8126L46.9921 44.6109L41.6456 47.5653L41.2955 47.7588L41.489 48.1089L42.4258 49.8041L42.5399 50.0107H42.7759H56.4844Z" fill="white" stroke="#0C0C0C" stroke-width="0.8"/>
<path id="Vector_2" d="M7.53906 5.78125H11.0547V9.31645H7.53906V5.78125Z" fill="#FF5500"/>
<path id="Vector_3" d="M14.0234 5.78125H17.5391V9.31645H14.0234V5.78125Z" fill="#FF5500"/>
<path id="Vector_4" d="M20.5078 5.78125H24.0234V9.31645H20.5078V5.78125Z" fill="#FF5500"/>
<path id="Vector_5" d="M19.0732 20.9272L22.1494 19.2257L25.2219 24.7802L22.1457 26.4818L19.0732 20.9272Z" fill="#FF5500"/>
<path id="Vector_6" d="M27.1621 24.5771L28.9269 18.4767L32.3055 19.4541L30.5407 25.5545L27.1621 24.5771Z" fill="#FF5500"/>
<path id="Vector_7" d="M32.1152 26.8345L37.6825 23.7811L39.3735 26.8643L33.8062 29.9177L32.1152 26.8345Z" fill="#FF5500"/>
<path id="Vector_8" d="M13.8584 29.6646L14.8252 26.2861L20.9256 28.0319L19.9589 31.4103L13.8584 29.6646Z" fill="#FF5500"/>
<path id="Vector_9" d="M14.6812 36.5005L20.2293 33.409L21.9415 36.4816L16.3933 39.5731L14.6812 36.5005Z" fill="#FF5500"/>
</g>
<defs>
<clipPath id="clip0_3222_213">
<rect width="60" height="60" fill="white"/>
</clipPath>
</defs>
</svg>
