<svg width="90" height="82" viewBox="0 0 90 82" fill="none" xmlns="http://www.w3.org/2000/svg">
<g id="free-icon-website-9783371 1" filter="url(#filter0_d_3218_164)">
<g id="Group">
<g id="Group_2">
<path id="Vector" d="M78.679 23.4126H11.3447" stroke="#586AD9" stroke-width="2.05078" stroke-miterlimit="10" stroke-linecap="round" stroke-linejoin="round"/>
<path id="Vector_2" d="M71.0829 11.4746H76.5137C77.8728 11.4746 78.9746 12.5764 78.9746 13.9355V62.0605C78.9746 63.4197 77.8728 64.5215 76.5137 64.5215H65.2344" stroke="#586AD9" stroke-width="2.05078" stroke-miterlimit="10" stroke-linecap="round" stroke-linejoin="round"/>
<path id="Vector_3" d="M11.0254 53.4624V13.9355C11.0254 12.5764 12.1272 11.4746 13.4863 11.4746H66.1611" stroke="#586AD9" stroke-width="2.05078" stroke-miterlimit="10" stroke-linecap="round" stroke-linejoin="round"/>
<path id="Vector_4" d="M24.5986 64.5214H13.4863C12.1272 64.5214 11.0254 63.4195 11.0254 62.0604V58.1411" stroke="#586AD9" stroke-width="2.05078" stroke-miterlimit="10" stroke-linecap="round" stroke-linejoin="round"/>
<path id="Vector_5" d="M51.3721 64.5215H38.4375" stroke="#586AD9" stroke-width="2.05078" stroke-miterlimit="10" stroke-linecap="round" stroke-linejoin="round"/>
<path id="Vector_6" d="M18.5996 19.4941C19.7322 19.4941 20.6504 18.576 20.6504 17.4434C20.6504 16.3107 19.7322 15.3926 18.5996 15.3926C17.467 15.3926 16.5488 16.3107 16.5488 17.4434C16.5488 18.576 17.467 19.4941 18.5996 19.4941Z" stroke="#586AD9" stroke-width="2.05078" stroke-miterlimit="10" stroke-linecap="round" stroke-linejoin="round"/>
<path id="Vector_7" d="M27.1445 19.4941C28.2771 19.4941 29.1953 18.576 29.1953 17.4434C29.1953 16.3107 28.2771 15.3926 27.1445 15.3926C26.0119 15.3926 25.0938 16.3107 25.0938 17.4434C25.0938 18.576 26.0119 19.4941 27.1445 19.4941Z" stroke="#586AD9" stroke-width="2.05078" stroke-miterlimit="10" stroke-linecap="round" stroke-linejoin="round"/>
<path id="Vector_8" d="M35.6895 19.4941C36.8221 19.4941 37.7402 18.576 37.7402 17.4434C37.7402 16.3107 36.8221 15.3926 35.6895 15.3926C34.5568 15.3926 33.6387 16.3107 33.6387 17.4434C33.6387 18.576 34.5568 19.4941 35.6895 19.4941Z" stroke="#586AD9" stroke-width="2.05078" stroke-miterlimit="10" stroke-linecap="round" stroke-linejoin="round"/>
<g id="Group_3">
<path id="Vector_9" d="M42.5391 34.3641V32.2559C42.5391 30.8969 43.641 29.7949 45 29.7949C45.6795 29.7949 46.2947 30.0711 46.7404 30.5154C47.1848 30.9611 47.4609 31.5764 47.4609 32.2559V34.3641" stroke="#586AD9" stroke-width="2.05078" stroke-miterlimit="10" stroke-linecap="round" stroke-linejoin="round"/>
<path id="Vector_10" d="M47.4609 52.2959V54.6775C47.4609 56.0365 46.359 57.1385 45 57.1385C44.3205 57.1385 43.7053 56.8623 43.2596 56.418C42.8152 55.9723 42.5391 55.357 42.5391 54.6775V52.2959" stroke="#586AD9" stroke-width="2.05078" stroke-miterlimit="10" stroke-linecap="round" stroke-linejoin="round"/>
</g>
<g id="Group_4">
<path id="Vector_11" d="M36.874 38.8194L35.3332 37.2786C34.372 36.3188 34.372 34.7603 35.3332 33.7991C35.813 33.3192 36.4433 33.0786 37.0736 33.0786C37.7039 33.0786 38.3341 33.3192 38.814 33.7991L40.3166 35.3017" stroke="#586AD9" stroke-width="2.05078" stroke-miterlimit="10" stroke-linecap="round" stroke-linejoin="round"/>
<path id="Vector_12" d="M53.0285 48.0137L54.6678 49.6529C55.6289 50.6141 55.6289 52.1727 54.6678 53.1338C54.1879 53.6137 53.5576 53.8543 52.9273 53.8543C52.2971 53.8543 51.6668 53.6137 51.1869 53.1338L49.5107 51.4562" stroke="#586AD9" stroke-width="2.05078" stroke-miterlimit="10" stroke-linecap="round" stroke-linejoin="round"/>
</g>
<g id="Group_5">
<path id="Vector_13" d="M35.9971 41.0059H33.7891C33.1096 41.0059 32.4943 41.282 32.0486 41.7264C31.6043 42.1721 31.3281 42.7873 31.3281 43.4668C31.3281 44.8258 32.4301 45.9277 33.7891 45.9277H36.0723" stroke="#586AD9" stroke-width="2.05078" stroke-miterlimit="10" stroke-linecap="round" stroke-linejoin="round"/>
<path id="Vector_14" d="M54.0029 41.0059H56.2109C57.5699 41.0059 58.6719 42.1078 58.6719 43.4668C58.6719 44.1463 58.3957 44.7615 57.9514 45.2072C57.5057 45.6516 56.8904 45.9277 56.2109 45.9277H53.9277" stroke="#586AD9" stroke-width="2.05078" stroke-miterlimit="10" stroke-linecap="round" stroke-linejoin="round"/>
</g>
<g id="Group_6">
<path id="Vector_15" d="M36.9711 48.0142L35.3318 49.6534C34.852 50.1333 34.6113 50.7636 34.6113 51.3938C34.6113 52.0241 34.852 52.6544 35.3318 53.1343C36.293 54.0954 37.8516 54.0954 38.8127 53.1343L40.4889 51.4567" stroke="#586AD9" stroke-width="2.05078" stroke-miterlimit="10" stroke-linecap="round" stroke-linejoin="round"/>
<path id="Vector_16" d="M49.6836 35.302L51.1861 33.7995C52.1473 32.8383 53.7059 32.8383 54.667 33.7995C55.1469 34.2793 55.3875 34.9096 55.3875 35.5399C55.3875 36.1688 55.1469 36.7991 54.667 37.279L53.1262 38.8198" stroke="#586AD9" stroke-width="2.05078" stroke-miterlimit="10" stroke-linecap="round" stroke-linejoin="round"/>
</g>
<path id="Vector_17" d="M45 52.4902C50.059 52.4902 54.1602 48.3891 54.1602 43.3301C54.1602 38.2711 50.059 34.1699 45 34.1699C39.941 34.1699 35.8398 38.2711 35.8398 43.3301C35.8398 48.3891 39.941 52.4902 45 52.4902Z" stroke="#586AD9" stroke-width="2.05078" stroke-miterlimit="10" stroke-linecap="round" stroke-linejoin="round"/>
<path id="Vector_18" d="M45 46.6113C46.8122 46.6113 48.2812 45.1423 48.2812 43.3301C48.2812 41.5179 46.8122 40.0488 45 40.0488C43.1878 40.0488 41.7188 41.5179 41.7188 43.3301C41.7188 45.1423 43.1878 46.6113 45 46.6113Z" stroke="#586AD9" stroke-width="2.05078" stroke-miterlimit="10" stroke-linecap="round" stroke-linejoin="round"/>
<g id="Group_7">
<g id="Group_8">
<path id="Vector_19" d="M22.0615 54.2522V33.2354" stroke="#586AD9" stroke-width="2.05078" stroke-miterlimit="10" stroke-linecap="round" stroke-linejoin="round"/>
<path id="Vector_20" d="M17.6416 35.97L22.0621 31.8228L26.4828 35.97" stroke="#586AD9" stroke-width="2.05078" stroke-miterlimit="10" stroke-linecap="round" stroke-linejoin="round"/>
</g>
<g id="Group_9">
<path id="Vector_21" d="M67.9385 54.2522V33.2354" stroke="#586AD9" stroke-width="2.05078" stroke-miterlimit="10" stroke-linecap="round" stroke-linejoin="round"/>
<path id="Vector_22" d="M63.5176 35.97L67.9382 31.8228L72.3588 35.97" stroke="#586AD9" stroke-width="2.05078" stroke-miterlimit="10" stroke-linecap="round" stroke-linejoin="round"/>
</g>
</g>
<g id="Group_10">
<path id="Vector_23" d="M58.3984 69.9902C62.1738 69.9902 65.2344 66.9297 65.2344 63.1543C65.2344 59.3789 62.1738 56.3184 58.3984 56.3184C54.6231 56.3184 51.5625 59.3789 51.5625 63.1543C51.5625 66.9297 54.6231 69.9902 58.3984 69.9902Z" stroke="#586AD9" stroke-width="2.05078" stroke-miterlimit="10" stroke-linecap="round" stroke-linejoin="round"/>
<path id="Vector_24" d="M58.3984 65.4785C59.6821 65.4785 60.7227 64.4379 60.7227 63.1543C60.7227 61.8707 59.6821 60.8301 58.3984 60.8301C57.1148 60.8301 56.0742 61.8707 56.0742 63.1543C56.0742 64.4379 57.1148 65.4785 58.3984 65.4785Z" stroke="#586AD9" stroke-width="2.05078" stroke-miterlimit="10" stroke-linecap="round" stroke-linejoin="round"/>
<path id="Vector_25" d="M31.6016 69.9902C35.3769 69.9902 38.4375 66.9297 38.4375 63.1543C38.4375 59.3789 35.3769 56.3184 31.6016 56.3184C27.8262 56.3184 24.7656 59.3789 24.7656 63.1543C24.7656 66.9297 27.8262 69.9902 31.6016 69.9902Z" stroke="#586AD9" stroke-width="2.05078" stroke-miterlimit="10" stroke-linecap="round" stroke-linejoin="round"/>
<path id="Vector_26" d="M31.6016 65.4785C32.8852 65.4785 33.9258 64.4379 33.9258 63.1543C33.9258 61.8707 32.8852 60.8301 31.6016 60.8301C30.3179 60.8301 29.2773 61.8707 29.2773 63.1543C29.2773 64.4379 30.3179 65.4785 31.6016 65.4785Z" stroke="#586AD9" stroke-width="2.05078" stroke-miterlimit="10" stroke-linecap="round" stroke-linejoin="round"/>
</g>
</g>
</g>
</g>
<defs>
<filter id="filter0_d_3218_164" x="0" y="-4.26758" width="90" height="90" filterUnits="userSpaceOnUse" color-interpolation-filters="sRGB">
<feFlood flood-opacity="0" result="BackgroundImageFix"/>
<feColorMatrix in="SourceAlpha" type="matrix" values="0 0 0 0 0 0 0 0 0 0 0 0 0 0 0 0 0 0 127 0" result="hardAlpha"/>
<feOffset/>
<feGaussianBlur stdDeviation="5"/>
<feColorMatrix type="matrix" values="0 0 0 0 0.345098 0 0 0 0 0.415686 0 0 0 0 0.85098 0 0 0 1 0"/>
<feBlend mode="normal" in2="BackgroundImageFix" result="effect1_dropShadow_3218_164"/>
<feBlend mode="normal" in="SourceGraphic" in2="effect1_dropShadow_3218_164" result="shape"/>
</filter>
</defs>
</svg>
