<svg width="90" height="88" viewBox="0 0 90 88" fill="none" xmlns="http://www.w3.org/2000/svg">
<g id="free-icon-pie-chart-4048050 1" clip-path="url(#clip0_3218_124)" filter="url(#filter0_d_3218_124)">
<g id="g5679">
<g id="g5681">
<g id="Clip path group">
<mask id="mask0_3218_124" style="mask-type:luminance" maskUnits="userSpaceOnUse" x="10" y="8" width="71" height="71">
<g id="clipPath5687">
<path id="path5685" d="M10.002 8.7754H80.0019V78.7754H10.002V8.7754Z" fill="white"/>
</g>
</mask>
<g mask="url(#mask0_3218_124)">
<g id="g5683">
<g id="g5689">
<path id="path5691" d="M56.6029 71.8115L56.0112 71.0125C54.6017 69.1097 53.8408 66.8042 53.8408 64.4362V62.1439" stroke="#586AD9" stroke-width="1.75781" stroke-miterlimit="10" stroke-linecap="round" stroke-linejoin="round"/>
</g>
<g id="g5693">
<path id="path5695" d="M36.1625 62.1444V64.4367C36.1625 66.8047 35.4017 69.1102 33.9921 71.013L33.4004 71.812" stroke="#586AD9" stroke-width="1.75781" stroke-miterlimit="10" stroke-linecap="round" stroke-linejoin="round"/>
</g>
<g id="g5697">
<path id="path5699" d="M70.1375 54.9624H74.5562V15.7405H15.4473V54.9624H65.3523" stroke="#586AD9" stroke-width="1.75781" stroke-miterlimit="10" stroke-linecap="round" stroke-linejoin="round"/>
</g>
<g id="g5701">
<path id="path5703" d="M24.6514 11.3199H76.2148C77.7392 11.3199 78.9766 12.5572 78.9766 14.0829V59.382C78.9766 60.9076 77.7392 62.1436 76.2148 62.1436H13.7891C12.2646 62.1436 11.0273 60.9076 11.0273 59.382V14.0829C11.0273 12.5572 12.2646 11.3199 13.7891 11.3199H19.8662" stroke="#586AD9" stroke-width="1.75781" stroke-miterlimit="10" stroke-linecap="round" stroke-linejoin="round"/>
</g>
<g id="g5705">
<path id="path5707" d="M41.8096 71.8113H61.575C62.1848 71.8113 62.6797 72.3063 62.6797 72.916V75.1268C62.6797 75.7365 62.1848 76.2314 61.575 76.2314H28.4289C27.8191 76.2314 27.3242 75.7365 27.3242 75.1268V72.916C27.3242 72.3063 27.8191 71.8113 28.4289 71.8113H37.0244" stroke="#586AD9" stroke-width="1.75781" stroke-miterlimit="10" stroke-linecap="round" stroke-linejoin="round"/>
</g>
<g id="g5709">
<path id="path5711" d="M34.3682 35.3509L44.6222 45.605" stroke="#586AD9" stroke-width="1.75781" stroke-miterlimit="10" stroke-linecap="round" stroke-linejoin="round"/>
</g>
<g id="g5713">
<path id="path5715" d="M34.3682 20.8499V35.3511H48.8695" stroke="#586AD9" stroke-width="1.75781" stroke-miterlimit="10" stroke-linecap="round" stroke-linejoin="round"/>
</g>
<g id="g5717">
<path id="path5719" d="M48.8689 35.3512C48.8689 43.36 42.3765 49.8525 34.3676 49.8525C26.3587 49.8525 19.8662 43.36 19.8662 35.3512C19.8662 27.3423 26.3587 20.85 34.3676 20.85C42.3765 20.85 48.8689 27.3423 48.8689 35.3512Z" stroke="#586AD9" stroke-width="1.75781" stroke-miterlimit="10" stroke-linecap="round" stroke-linejoin="round"/>
</g>
<g id="g5721">
<path id="path5723" d="M57.4315 20.1592H53.2881" stroke="#586AD9" stroke-width="1.75781" stroke-miterlimit="10" stroke-linecap="round" stroke-linejoin="round"/>
</g>
<g id="g5725">
<path id="path5727" d="M70.137 20.1592H61.8506" stroke="#586AD9" stroke-width="1.75781" stroke-miterlimit="10" stroke-linecap="round" stroke-linejoin="round"/>
</g>
<g id="g5729">
<path id="path5731" d="M62.126 28.998H53.2871" stroke="#586AD9" stroke-width="1.75781" stroke-miterlimit="10" stroke-linecap="round" stroke-linejoin="round"/>
</g>
<g id="g5733">
<path id="path5735" d="M62.126 24.5786H53.2871" stroke="#586AD9" stroke-width="1.75781" stroke-miterlimit="10" stroke-linecap="round" stroke-linejoin="round"/>
</g>
<g id="g5737">
<path id="path5739" d="M70.1368 24.5786H66.5459" stroke="#586AD9" stroke-width="1.75781" stroke-miterlimit="10" stroke-linecap="round" stroke-linejoin="round"/>
</g>
<path id="path5741" d="M55.8433 50.543H51.4238V44.6042H55.8433V50.543Z" stroke="#586AD9" stroke-width="1.75781" stroke-miterlimit="10" stroke-linecap="round" stroke-linejoin="round"/>
<path id="path5743" d="M60.2622 50.543H55.8428V40.0468H60.2622V50.543Z" stroke="#586AD9" stroke-width="1.75781" stroke-miterlimit="10" stroke-linecap="round" stroke-linejoin="round"/>
<path id="path5745" d="M64.6821 50.543H60.2627V35.9035H64.6821V50.543Z" stroke="#586AD9" stroke-width="1.75781" stroke-miterlimit="10" stroke-linecap="round" stroke-linejoin="round"/>
<path id="path5747" d="M69.1011 50.543H64.6816V33.4176H69.1011V50.543Z" stroke="#586AD9" stroke-width="1.75781" stroke-miterlimit="10" stroke-linecap="round" stroke-linejoin="round"/>
<g id="g5749">
<path id="path5751" d="M50.3877 50.543H70.1371" stroke="#586AD9" stroke-width="1.75781" stroke-miterlimit="10" stroke-linecap="round" stroke-linejoin="round"/>
</g>
</g>
</g>
</g>
</g>
</g>
</g>
<defs>
<filter id="filter0_d_3218_124" x="0" y="-1.22363" width="90" height="90" filterUnits="userSpaceOnUse" color-interpolation-filters="sRGB">
<feFlood flood-opacity="0" result="BackgroundImageFix"/>
<feColorMatrix in="SourceAlpha" type="matrix" values="0 0 0 0 0 0 0 0 0 0 0 0 0 0 0 0 0 0 127 0" result="hardAlpha"/>
<feOffset/>
<feGaussianBlur stdDeviation="5"/>
<feColorMatrix type="matrix" values="0 0 0 0 0.345098 0 0 0 0 0.415686 0 0 0 0 0.85098 0 0 0 1 0"/>
<feBlend mode="normal" in2="BackgroundImageFix" result="effect1_dropShadow_3218_124"/>
<feBlend mode="normal" in="SourceGraphic" in2="effect1_dropShadow_3218_124" result="shape"/>
</filter>
<clipPath id="clip0_3218_124">
<rect width="70" height="70" fill="white" transform="translate(10 8.77637)"/>
</clipPath>
</defs>
</svg>
