<svg width="90" height="86" viewBox="0 0 90 86" fill="none" xmlns="http://www.w3.org/2000/svg">
<g filter="url(#filter0_d_3218_57)">
<path d="M52.2234 37.7954C54.1562 37.7954 55.7231 36.2285 55.7231 34.2956C55.7231 32.3628 54.1562 30.7959 52.2234 30.7959C50.2905 30.7959 48.7236 32.3628 48.7236 34.2956C48.7236 36.2285 50.2905 37.7954 52.2234 37.7954Z" stroke="#586AD9" stroke-width="1.76" stroke-miterlimit="10" stroke-linecap="round" stroke-linejoin="round"/>
<path d="M50.3541 47.546L41.2135 35.0494C40.0024 33.3937 37.5311 33.3937 36.32 35.0494L27.6797 46.862" stroke="#586AD9" stroke-width="1.76" stroke-miterlimit="10" stroke-linecap="round" stroke-linejoin="round"/>
<path d="M58.2785 42.3769C56.9762 41.4165 55.0574 41.6349 54.0355 43.0317L47.6895 51.7078" stroke="#586AD9" stroke-width="1.76" stroke-miterlimit="10" stroke-linecap="round" stroke-linejoin="round"/>
<path d="M35.529 51.8514H30.1299C28.6197 51.8514 27.3955 50.6272 27.3955 49.117V29.3491C27.3955 27.8389 28.6197 26.6147 30.1299 26.6147H58.9957C60.5059 26.6147 61.7301 27.8389 61.7301 29.3491V37.7952" stroke="#586AD9" stroke-width="1.76" stroke-miterlimit="10" stroke-linecap="round" stroke-linejoin="round"/>
<path d="M57.9713 51.8516H40.3154" stroke="#586AD9" stroke-width="1.76" stroke-miterlimit="10" stroke-linecap="round" stroke-linejoin="round"/>
<path d="M73.5059 74.3942H16.4941C13.4739 74.3942 11.0254 71.9457 11.0254 68.9254V20.9336H78.9746V68.9254C78.9746 71.9458 76.5261 74.3942 73.5059 74.3942Z" stroke="#586AD9" stroke-width="1.76" stroke-miterlimit="10" stroke-linecap="round" stroke-linejoin="round"/>
<path d="M18.3471 11.334H16.4941C13.4739 11.334 11.0254 13.7825 11.0254 16.8027V20.9336H78.9746V16.8027C78.9746 13.7825 76.5261 11.334 73.5059 11.334H22.9958" stroke="#586AD9" stroke-width="1.76" stroke-miterlimit="10" stroke-linecap="round" stroke-linejoin="round"/>
<path d="M54.2051 16.1338H55.9861" stroke="#586AD9" stroke-width="1.76" stroke-miterlimit="10" stroke-linecap="round" stroke-linejoin="round"/>
<path d="M60.9014 16.1338H62.6824" stroke="#586AD9" stroke-width="1.76" stroke-miterlimit="10" stroke-linecap="round" stroke-linejoin="round"/>
<path d="M67.5986 16.1338H69.3795" stroke="#586AD9" stroke-width="1.76" stroke-miterlimit="10" stroke-linecap="round" stroke-linejoin="round"/>
<path d="M19.7099 63.8203H11.0254V28.5039H19.7099C21.2201 28.5039 22.4443 29.7281 22.4443 31.2383V61.0859C22.4443 62.5961 21.2201 63.8203 19.7099 63.8203Z" stroke="#586AD9" stroke-width="1.76" stroke-miterlimit="10" stroke-linecap="round" stroke-linejoin="round"/>
<path d="M58.6572 40.6001V74.3941H73.5057C76.526 74.3941 78.9745 71.9456 78.9745 68.9254V37.8657H61.3916C59.8815 37.8657 58.6572 39.09 58.6572 40.6001Z" stroke="#586AD9" stroke-width="1.76" stroke-miterlimit="10" stroke-linecap="round" stroke-linejoin="round"/>
<path d="M58.6572 44.5391H78.9745" stroke="#586AD9" stroke-width="1.76" stroke-miterlimit="10" stroke-linecap="round" stroke-linejoin="round"/>
<path d="M58.6572 50.3345H78.9745" stroke="#586AD9" stroke-width="1.76" stroke-miterlimit="10" stroke-linecap="round" stroke-linejoin="round"/>
<path d="M58.6572 56.1304H78.9745" stroke="#586AD9" stroke-width="1.76" stroke-miterlimit="10" stroke-linecap="round" stroke-linejoin="round"/>
<path d="M58.6572 61.9258H78.9745" stroke="#586AD9" stroke-width="1.76" stroke-miterlimit="10" stroke-linecap="round" stroke-linejoin="round"/>
<path d="M58.6572 67.7212H78.9745" stroke="#586AD9" stroke-width="1.76" stroke-miterlimit="10" stroke-linecap="round" stroke-linejoin="round"/>
<circle cx="16.7354" cy="34.8872" r="1.02539" fill="black" stroke="#586AD9" stroke-width="1.76" stroke-miterlimit="10" stroke-linecap="round" stroke-linejoin="round"/>
<circle cx="16.7354" cy="40.5249" r="1.02539" fill="black" stroke="#586AD9" stroke-width="1.76" stroke-miterlimit="10" stroke-linecap="round" stroke-linejoin="round"/>
<circle cx="16.7354" cy="46.1621" r="1.02539" fill="black" stroke="#586AD9" stroke-width="1.76" stroke-miterlimit="10" stroke-linecap="round" stroke-linejoin="round"/>
<circle cx="16.7354" cy="51.7998" r="1.02539" fill="black" stroke="#586AD9" stroke-width="1.76" stroke-miterlimit="10" stroke-linecap="round" stroke-linejoin="round"/>
<circle cx="16.7354" cy="57.4375" r="1.02539" fill="black" stroke="#586AD9" stroke-width="1.76" stroke-miterlimit="10" stroke-linecap="round" stroke-linejoin="round"/>
<path d="M50.399 69.4129H30.2312C28.6695 69.4129 27.4033 68.1469 27.4033 66.585V59.49C27.4033 57.9283 28.6693 56.6621 30.2312 56.6621H50.3991C51.9609 56.6621 53.227 57.9281 53.227 59.49V66.585C53.2269 68.1468 51.9609 69.4129 50.399 69.4129Z" stroke="#586AD9" stroke-width="1.76" stroke-miterlimit="10" stroke-linecap="round" stroke-linejoin="round"/>
<path d="M33.2402 63.0376H47.3899" stroke="#586AD9" stroke-width="1.76" stroke-miterlimit="10" stroke-linecap="round" stroke-linejoin="round"/>
</g>
<defs>
<filter id="filter0_d_3218_57" x="0" y="-2.13574" width="90" height="90" filterUnits="userSpaceOnUse" color-interpolation-filters="sRGB">
<feFlood flood-opacity="0" result="BackgroundImageFix"/>
<feColorMatrix in="SourceAlpha" type="matrix" values="0 0 0 0 0 0 0 0 0 0 0 0 0 0 0 0 0 0 127 0" result="hardAlpha"/>
<feOffset/>
<feGaussianBlur stdDeviation="5"/>
<feColorMatrix type="matrix" values="0 0 0 0 0.345098 0 0 0 0 0.415686 0 0 0 0 0.85098 0 0 0 1 0"/>
<feBlend mode="normal" in2="BackgroundImageFix" result="effect1_dropShadow_3218_57"/>
<feBlend mode="normal" in="SourceGraphic" in2="effect1_dropShadow_3218_57" result="shape"/>
</filter>
</defs>
</svg>
