<svg width="24" height="25" viewBox="0 0 24 25" fill="none" xmlns="http://www.w3.org/2000/svg">
<path d="M21.8696 24.5L15.6734 18.1902C14.9126 18.795 14.0376 19.2738 13.0485 19.6266C12.0594 19.9794 11.0069 20.1558 9.891 20.1558C7.12659 20.1558 4.78699 19.2045 2.87219 17.3019C0.957398 15.3993 0 13.0747 0 10.3279C0 7.58112 0.957398 5.25645 2.87219 3.35387C4.78699 1.45129 7.12659 0.5 9.891 0.5C12.6554 0.5 14.995 1.45129 16.9098 3.35387C18.8246 5.25645 19.782 7.58112 19.782 10.3279C19.782 11.4367 19.6045 12.4825 19.2494 13.4653C18.8943 14.448 18.4125 15.3174 17.8038 16.0734L24 22.3832L21.8696 24.5ZM9.891 17.1318C11.7931 17.1318 13.4099 16.4703 14.7414 15.1473C16.0729 13.8244 16.7386 12.2179 16.7386 10.3279C16.7386 8.43791 16.0729 6.83143 14.7414 5.50845C13.4099 4.18546 11.7931 3.52397 9.891 3.52397C7.98889 3.52397 6.37209 4.18546 5.04061 5.50845C3.70913 6.83143 3.04338 8.43791 3.04338 10.3279C3.04338 12.2179 3.70913 13.8244 5.04061 15.1473C6.37209 16.4703 7.98889 17.1318 9.891 17.1318Z" fill="white"/>
</svg>
