<svg width="50" height="51" viewBox="0 0 50 51" fill="none" xmlns="http://www.w3.org/2000/svg">
<g clip-path="url(#clip0_2118_1569)">
<path d="M50 41.2172C50 46.2447 45.9288 50.3093 40.9079 50.3093H9.08993C4.07115 50.3093 0 46.2447 0 41.2172V9.77702C0 4.75608 4.07115 0.691406 9.08993 0.691406H40.9079C45.9288 0.691406 50 4.75608 50 9.77702V41.2172Z" fill="#36B44A"/>
<path d="M39.1318 4.7627H10.1179C6.41587 4.7627 3.42188 7.77828 3.42188 11.4868V27.4368C3.42188 31.1474 6.41587 34.1566 10.1179 34.1566H20.1144L23.5251 39.7064C23.5251 39.7064 23.5596 39.7754 23.633 39.8661C23.8337 40.2093 24.2029 40.4403 24.6259 40.4403C25.049 40.4403 25.4117 40.2072 25.6124 39.8726C25.6988 39.7733 25.729 39.7042 25.729 39.7042L29.1353 34.1544H39.1297C42.8295 34.1544 45.8322 31.1453 45.8322 27.4346V11.4868C45.8322 7.77612 42.8295 4.7627 39.1297 4.7627" fill="white"/>
<path d="M12.8441 16.4488C12.8441 16.4488 11.685 16.4488 10.6316 17.4763V13.3555H8.03906V24.1701H10.6596V23.3218C10.6596 23.3218 11.2791 24.4421 12.842 24.4421C12.842 24.4421 16.4987 24.304 16.4987 20.3969C16.4987 20.3969 16.3648 16.4466 12.842 16.4466M12.2699 22.154C11.3482 22.154 10.6035 21.4093 10.6035 20.4897C10.6035 19.5701 11.3482 18.8211 12.2699 18.8211C13.1917 18.8211 13.9386 19.5658 13.9386 20.4897C13.9386 21.4136 13.1917 22.154 12.2699 22.154Z" fill="#F47626"/>
<path d="M17.3359 13.1074V15.6136C17.3359 15.6136 18.5167 15.5596 18.5167 17.77V24.1703H21.0207V17.1764C21.0207 17.1764 21.1286 13.1074 17.3359 13.1074Z" fill="#F47626"/>
<path d="M27.1394 16.4863C27.1394 16.4863 22.8481 16.4863 22.8481 20.4906C22.8481 20.4906 22.7121 24.4451 27.1394 24.4451C27.1394 24.4451 31.5279 24.4387 31.5279 20.4906C31.5279 20.4906 31.6725 16.4863 27.1394 16.4863ZM27.1416 22.1549C26.2177 22.1549 25.473 21.4101 25.473 20.4906C25.473 19.571 26.2156 18.8219 27.1416 18.8219C28.0676 18.8219 28.808 19.5667 28.808 20.4906C28.808 21.4144 28.0633 22.1549 27.1416 22.1549Z" fill="#F47626"/>
<path d="M38.6919 16.7387V17.477C38.6919 17.477 37.945 16.4862 36.5117 16.4862C36.5117 16.4862 32.8399 16.3264 32.8399 20.4602C32.8399 20.4602 32.801 24.3133 36.4102 24.3133C36.4102 24.3133 37.8824 24.3716 38.6919 23.3225V23.9291C38.6919 23.9291 38.8753 25.8265 37.0384 25.8265H36.4102V28.1254H37.4226C37.4226 28.1254 41.2174 28.1664 41.2174 24.0715V16.7366H38.6919V16.7387ZM37.142 22.1547C36.2224 22.1547 35.4734 21.41 35.4734 20.4904C35.4734 19.5708 36.2224 18.8218 37.142 18.8218C38.0616 18.8218 38.8084 19.5665 38.8084 20.4904C38.8084 21.4143 38.0637 22.1547 37.142 22.1547Z" fill="#F47626"/>
</g>
<defs>
<clipPath id="clip0_2118_1569">
<rect width="50" height="49.6179" fill="white" transform="translate(0 0.691406)"/>
</clipPath>
</defs>
</svg>
