<svg width="50" height="51" viewBox="0 0 50 51" fill="none" xmlns="http://www.w3.org/2000/svg">
<g clip-path="url(#clip0_2118_1958)">
<path d="M6.4039 0.5H43.5961C47.1309 0.5 50 3.36914 50 6.9039V44.0961C50 47.6309 47.1309 50.5 43.5961 50.5H6.4039C2.86914 50.5 0 47.6309 0 44.0961V6.9039C0 3.36914 2.86914 0.5 6.4039 0.5Z" fill="#33B44A"/>
<path d="M43.6532 22.1005H41.5802C39.9836 13.5214 32.4616 7.02832 23.4213 7.02832C13.2195 7.02832 4.94922 15.2986 4.94922 25.5004C4.94922 35.7023 13.2195 43.9725 23.4213 43.9725C32.4616 43.9725 39.9836 37.4773 41.5802 28.8982H43.6532C45.5304 28.8982 47.0509 27.3755 47.0509 25.4983C47.0509 23.621 45.5304 22.0984 43.6532 22.0984" fill="white"/>
<mask id="mask0_2118_1958" style="mask-type:luminance" maskUnits="userSpaceOnUse" x="7" y="9" width="33" height="33">
<path d="M7.35938 25.498C7.35938 34.3926 14.5703 41.6057 23.467 41.6057C32.3637 41.6057 39.5746 34.3948 39.5746 25.498C39.5746 16.6013 32.3637 9.39258 23.467 9.39258C14.5703 9.39258 7.35938 16.6035 7.35938 25.498Z" fill="white"/>
</mask>
<g mask="url(#mask0_2118_1958)">
<path d="M26.7649 -6.37147L-8.40625 22.2012L20.1678 57.374L55.3389 28.8014L26.7649 -6.37147Z" fill="url(#paint0_linear_2118_1958)"/>
</g>
<g style="mix-blend-mode:overlay">
<mask id="mask1_2118_1958" style="mask-type:luminance" maskUnits="userSpaceOnUse" x="7" y="9" width="33" height="33">
<path d="M39.5725 9.39258H7.35938V41.6035H39.5725V9.39258Z" fill="white"/>
</mask>
<g mask="url(#mask1_2118_1958)">
<mask id="mask2_2118_1958" style="mask-type:luminance" maskUnits="userSpaceOnUse" x="7" y="9" width="33" height="33">
<path d="M39.5707 25.4983C39.5707 34.3928 32.3598 41.6059 23.4631 41.6059C14.5664 41.6059 7.35547 34.395 7.35547 25.4983C7.35547 16.6015 14.5664 9.39062 23.4631 9.39062C32.3598 9.39062 39.5707 16.6015 39.5707 25.4983Z" fill="white"/>
</mask>
<g mask="url(#mask2_2118_1958)">
<path d="M26.7627 -6.37382L-8.41016 22.2002L20.1639 57.3731L55.3367 28.799L26.7627 -6.37382Z" fill="url(#paint1_linear_2118_1958)"/>
</g>
</g>
</g>
<path d="M37.1963 25.4996C37.1963 33.0825 31.0491 39.2297 23.4684 39.2297C15.8877 39.2297 9.73828 33.0825 9.73828 25.4996C9.73828 17.9167 15.8855 11.7695 23.4684 11.7695C31.0513 11.7695 37.1963 17.9167 37.1963 25.4996Z" fill="#864432"/>
<path d="M37.1963 25.4996C37.1963 33.0825 31.0491 39.2297 23.4684 39.2297C15.8877 39.2297 9.73828 33.0825 9.73828 25.4996C9.73828 17.9168 15.8855 11.7695 23.4684 11.7695C31.0513 11.7695 37.1963 17.9168 37.1963 25.4996Z" stroke="#5C2719" stroke-width="1.57563" stroke-miterlimit="10"/>
<path d="M11.0782 26.8394C11.0782 19.2565 17.2254 13.1114 24.8083 13.1114C28.2582 13.1114 31.408 14.3861 33.8203 16.4874C31.3036 13.5987 27.6013 11.7715 23.4684 11.7715C15.8855 11.7715 9.73828 17.9187 9.73828 25.5016C9.73828 29.6345 11.5677 33.3368 14.4564 35.8535C12.3551 33.4412 11.0782 30.2915 11.0782 26.8415" fill="#5C2719"/>
<path d="M23.4857 21.4716C23.9164 21.3128 24.06 21.154 24.83 20.9669C25.6196 20.7733 32.2215 21.2258 34.86 19.4943C39.6782 16.3293 41.2596 10.119 42.0166 9.5034C40.9398 8.20696 34.1444 8.05252 29.6373 10.6672C26.766 12.3312 23.1747 15.6854 23.4879 21.4716" fill="#59BA47"/>
<mask id="mask3_2118_1958" style="mask-type:luminance" maskUnits="userSpaceOnUse" x="23" y="9" width="20" height="13">
<path d="M31.1997 14.0367C28.1631 15.3744 23.6669 19.6379 23.4863 21.476C23.9192 21.3172 24.0606 21.1584 24.8306 20.9713C25.6202 20.7777 32.2221 21.2302 34.8606 19.4987C39.6788 16.3337 41.2602 10.1234 42.0172 9.50781C38.8522 11.2567 35.8221 12.0006 31.1997 14.0388" fill="white"/>
</mask>
<g mask="url(#mask3_2118_1958)">
<path d="M39.1985 2.84736L19.1895 11.3242L26.3078 28.1266L46.3169 19.6498L39.1985 2.84736Z" fill="url(#paint2_linear_2118_1958)"/>
</g>
</g>
<defs>
<linearGradient id="paint0_linear_2118_1958" x1="16.2432" y1="12.148" x2="36.4232" y2="36.9884" gradientUnits="userSpaceOnUse">
<stop stop-color="#848685"/>
<stop offset="1" stop-color="#C4D2CF"/>
</linearGradient>
<linearGradient id="paint1_linear_2118_1958" x1="15.5731" y1="11.4719" x2="35.7532" y2="36.3123" gradientUnits="userSpaceOnUse">
<stop stop-color="#6F7073"/>
<stop offset="1" stop-color="#C4D2CF"/>
</linearGradient>
<linearGradient id="paint2_linear_2118_1958" x1="27.3002" y1="23.6997" x2="65.3878" y2="7.56382" gradientUnits="userSpaceOnUse">
<stop stop-color="#156432"/>
<stop offset="1" stop-color="#C4D2CF"/>
</linearGradient>
<clipPath id="clip0_2118_1958">
<rect y="0.5" width="50" height="50" rx="8" fill="white"/>
</clipPath>
</defs>
</svg>
