<svg width="60" height="61" viewBox="0 0 60 61" fill="none" xmlns="http://www.w3.org/2000/svg">
<g clip-path="url(#clip0_2126_556)">
<path d="M29.9999 60.4998C46.5684 60.4998 59.9998 47.0684 59.9998 30.4999C59.9998 13.9314 46.5684 0.5 29.9999 0.5C13.4314 0.5 0 13.9314 0 30.4999C0 47.0684 13.4314 60.4998 29.9999 60.4998Z" fill="url(#paint0_linear_2126_556)"/>
<path d="M17.7347 18.2358C12.5699 23.4006 11.1944 31.3066 14.3121 37.9088C14.6438 38.6111 14.3434 39.4493 13.641 39.7809C13.4471 39.8726 13.2427 39.9159 13.0415 39.9159C12.5144 39.9159 12.0089 39.6181 11.7691 39.1098C8.14561 31.4369 9.74393 22.2491 15.746 16.247C21.7483 10.2449 30.9359 8.64666 38.6087 12.27C39.311 12.6016 39.6115 13.4397 39.2799 14.142C38.9484 14.8445 38.1103 15.1451 37.4078 14.8132C30.8055 11.6955 22.8995 13.071 17.7347 18.2358ZM48.2291 21.8906C47.8975 21.1883 47.0594 20.8876 46.3571 21.2195C45.6548 21.5511 45.3543 22.3892 45.6859 23.0915C48.8036 29.6938 47.4283 37.5997 42.2634 42.7646C38.9417 46.0863 34.4874 47.8405 29.9741 47.8404C27.4697 47.8401 24.9466 47.2998 22.5903 46.1872C21.8882 45.8554 21.0498 46.1559 20.7182 46.8583C20.3866 47.5608 20.6869 48.3989 21.3893 48.7304C24.1285 50.0239 27.0594 50.6519 29.9708 50.6518C35.2149 50.6515 40.3928 48.613 44.2521 44.7535C50.2545 38.7512 51.8526 29.5635 48.2291 21.8906ZM18.6751 28.9626C18.6229 26.0152 20.1342 23.5492 22.6196 22.5269C24.9863 21.5538 27.7186 22.0953 29.9991 23.9258C32.2794 22.0957 35.0116 21.5537 37.3782 22.5268C39.8632 23.5487 41.3748 26.0143 41.323 28.9615C41.2138 35.1807 32.4689 40.6843 30.717 41.7245C30.4957 41.8558 30.2474 41.9216 29.9991 41.9216C29.7508 41.9216 29.5026 41.8558 29.2812 41.7245C27.5295 40.6845 18.7854 35.1817 18.6751 28.9626ZM21.4872 28.9127C21.552 32.568 26.5688 36.6907 29.9991 38.8652C33.4295 36.6904 38.4468 32.5677 38.511 28.912C38.5425 27.1226 37.7191 25.708 36.3086 25.1279C34.649 24.4456 32.6705 25.0719 31.0158 26.8033C30.7505 27.081 30.3832 27.2381 29.9991 27.2381C29.615 27.2381 29.2477 27.0811 28.9824 26.8033C27.7683 25.5328 26.3798 24.8574 25.0708 24.8574C24.5957 24.8574 24.1313 24.9464 23.6894 25.1281C22.2787 25.7082 21.4555 27.1231 21.4872 28.9127Z" fill="white"/>
</g>
<defs>
<linearGradient id="paint0_linear_2126_556" x1="29.9999" y1="0.5" x2="29.9999" y2="60.4998" gradientUnits="userSpaceOnUse">
<stop stop-color="#2196F3"/>
<stop offset="1" stop-color="#13578D"/>
</linearGradient>
<clipPath id="clip0_2126_556">
<rect width="60" height="60" fill="white" transform="translate(0 0.5)"/>
</clipPath>
</defs>
</svg>
