<svg width="61" height="61" viewBox="0 0 61 61" fill="none" xmlns="http://www.w3.org/2000/svg">
<g clip-path="url(#clip0_2126_543)">
<path d="M30.5 60.5C47.0685 60.5 60.5 47.0685 60.5 30.5C60.5 13.9315 47.0685 0.5 30.5 0.5C13.9315 0.5 0.5 13.9315 0.5 30.5C0.5 47.0685 13.9315 60.5 30.5 60.5Z" fill="url(#paint0_linear_2126_543)"/>
<path d="M14.7879 25.7414C14.7879 28.8018 15.9987 31.738 18.1561 33.9088C19.2241 34.9809 20.4932 35.8315 21.8907 36.412C23.2882 36.9925 24.7867 37.2913 26.3 37.2913C27.8133 37.2913 29.3118 36.9925 30.7093 36.412C32.1069 35.8315 33.3761 34.9807 34.4441 33.9086C36.6008 31.7375 37.8112 28.8015 37.8112 25.7414C37.8112 22.6812 36.6008 19.7452 34.4441 17.5742L14.7879 25.7414ZM14.7879 25.7414C14.7879 22.6809 15.9987 19.7447 18.1561 17.5739M14.7879 25.7414L18.1561 17.5739M18.1561 17.5739C19.2241 16.5019 20.4932 15.6512 21.8907 15.0707M18.1561 17.5739L21.8907 15.0707M21.8907 15.0707C23.2882 14.4902 24.7867 14.1914 26.3 14.1914M21.8907 15.0707L26.3 14.1914M26.3 14.1914C27.8133 14.1914 29.3118 14.4902 30.7093 15.0707M26.3 14.1914L30.7093 15.0707M30.7093 15.0707C32.1068 15.6512 33.3759 16.5018 34.4438 17.5739L30.7093 15.0707ZM48.1438 45.8073V45.8083L37.144 34.78C41.7558 29.2319 41.4661 20.9471 36.2754 15.7433C34.9671 14.4301 33.4124 13.3882 31.7004 12.6773C29.9885 11.9664 28.1531 11.6004 26.2994 11.6004C24.4457 11.6004 22.6103 11.9664 20.8984 12.6773C19.1866 13.3882 17.6319 14.43 16.3236 15.7431C10.8255 21.2508 10.8255 30.2294 16.3235 35.7371C18.8418 38.2637 22.2252 39.7406 25.7902 39.8695C29.2618 39.995 32.6539 38.8332 35.3173 36.6131L46.8251 48.1497L46.8254 48.15C46.9456 48.2702 47.0883 48.3655 47.2453 48.4306C47.4023 48.4956 47.5707 48.5291 47.7406 48.5291C47.9106 48.5291 48.0789 48.4956 48.236 48.4306C48.393 48.3655 48.5357 48.2702 48.6559 48.15C48.7761 48.0298 48.8714 47.8871 48.9365 47.7301C49.0015 47.573 49.035 47.4047 49.035 47.2347C49.035 47.0647 49.0015 46.8964 48.9365 46.7394C48.8714 46.5824 48.7761 46.4397 48.6559 46.3195L48.1438 45.8073Z" fill="white" stroke="white" stroke-width="0.6"/>
</g>
<defs>
<linearGradient id="paint0_linear_2126_543" x1="9.28672" y1="9.28672" x2="51.7133" y2="51.7133" gradientUnits="userSpaceOnUse">
<stop stop-color="#F5B236"/>
<stop offset="1" stop-color="#FB541A"/>
</linearGradient>
<clipPath id="clip0_2126_543">
<rect width="60" height="60" fill="white" transform="translate(0.5 0.5)"/>
</clipPath>
</defs>
</svg>
