<svg width="30" height="30" viewBox="0 0 30 30" fill="none" xmlns="http://www.w3.org/2000/svg">
<g clip-path="url(#clip0_1245_611)">
<path d="M27.1125 14.2479H19.6797V8.74731H27.1125C28.1351 8.74731 28.9641 9.5763 28.9641 10.5989V12.3963C28.9642 13.4189 28.1351 14.2479 27.1125 14.2479Z" fill="#EAF6FF"/>
<path d="M10.4581 22.403C16.2287 22.403 20.9067 17.7252 20.9067 11.9549C20.9067 6.1846 16.2287 1.50684 10.4581 1.50684C4.68752 1.50684 0.00952148 6.1846 0.00952148 11.9549C0.00952148 17.7252 4.68752 22.403 10.4581 22.403Z" fill="#D8ECFE"/>
<path d="M26.4711 27.9673C25.7444 28.694 24.5662 28.694 23.8395 27.9673L15.843 19.9712L18.4748 17.3396L26.4711 25.3356C27.1979 26.0623 27.1979 27.2407 26.4711 27.9673Z" fill="#A79BA7"/>
<path d="M26.4711 25.3357L18.4748 17.3396L17.2837 18.5306L24.089 25.3356C24.8157 26.0623 24.8157 27.2406 24.089 27.9673C24.0488 28.0075 24.007 28.0451 23.9643 28.0808C24.6953 28.6914 25.7846 28.6538 26.4711 27.9673C27.1979 27.2407 27.1979 26.0623 26.4711 25.3357Z" fill="#918291"/>
<path d="M17.8463 4.56704C15.3938 2.11471 12.0258 1.13708 8.84253 1.63255C10.9557 1.96143 12.9873 2.93913 14.6153 4.56704C18.6957 8.64727 18.6957 15.2626 14.6153 19.3429C12.9873 20.9708 10.9557 21.9485 8.84253 22.2774C12.0257 22.7729 15.3938 21.7952 17.8463 19.3429C21.9267 15.2626 21.9267 8.64727 17.8463 4.56704Z" fill="#C4E2FF"/>
<path d="M10.4582 20.7722C8.10293 20.7722 5.88861 19.855 4.2232 18.1897C2.55779 16.5244 1.64062 14.3102 1.64062 11.9551C1.64062 9.59995 2.55779 7.38575 4.2232 5.7204C5.88861 4.05505 8.10293 3.13794 10.4582 3.13794C11.5805 3.13794 12.6806 3.35063 13.6948 3.74884C13.6948 3.74884 15.2562 4.7331 15.9946 5.7204C18.9847 9.71796 18.9704 14.2481 15.9946 18.1897C15.2539 19.1708 13.6948 20.1613 13.6948 20.1613C12.6778 20.562 11.5841 20.7722 10.4582 20.7722Z" fill="#60B7FF"/>
<path d="M16.693 5.72034C15.8238 4.85116 14.8049 4.1863 13.6946 3.74878C14.0133 4.00056 14.3211 4.2729 14.6153 4.5671C18.6957 8.64733 18.6957 15.2627 14.6153 19.3429C14.3211 19.6371 14.0133 19.9095 13.6946 20.1612C14.8048 19.7237 15.8238 19.0589 16.6929 18.1897C20.1309 14.7519 20.1309 9.15815 16.693 5.72034Z" fill="#26A6FE"/>
<path d="M28.1579 14.2479H27.1126C26.09 14.2479 25.261 13.4189 25.261 12.3963V10.5989C25.261 9.5763 26.09 8.74731 27.1126 8.74731H28.1579C29.1806 8.74731 30.0095 9.5763 30.0095 10.5989V12.3963C30.0095 13.4189 29.1806 14.2479 28.1579 14.2479Z" fill="#CB97E7"/>
<path d="M28.1578 8.74756H27.1125C26.9975 8.74756 26.8852 8.75857 26.7761 8.77861C27.638 8.93687 28.2913 9.6915 28.2913 10.5992V12.3965C28.2913 13.3042 27.638 14.0588 26.7761 14.2171C26.8853 14.2371 26.9976 14.2482 27.1125 14.2482H28.1578C29.1805 14.2482 30.0094 13.4192 30.0094 12.3965V10.5992C30.0094 9.57654 29.1805 8.74756 28.1578 8.74756Z" fill="#BD80E1"/>
<path d="M10.922 10.3048C11.172 10.3048 11.3746 10.1021 11.3746 9.85211C11.3746 9.60209 11.172 9.39941 10.922 9.39941H9.16607C8.91605 9.39941 8.71338 9.60209 8.71338 9.85211V14.0192C8.71338 14.2692 8.91605 14.4719 9.16607 14.4719H10.922C11.172 14.4719 11.3746 14.2692 11.3746 14.0192C11.3746 13.7692 11.172 13.5665 10.922 13.5665H9.61877V12.3883H10.7925C11.0425 12.3883 11.2452 12.1857 11.2452 11.9356C11.2452 11.6856 11.0425 11.4829 10.7925 11.4829H9.61877V10.3049H10.922V10.3048Z" fill="#EAF6FF"/>
<path d="M6.53638 11.5632C6.00816 11.3684 5.5172 11.1559 5.37903 11.0954C5.27275 11.0138 5.22148 10.8861 5.24134 10.7481C5.254 10.6599 5.31687 10.445 5.627 10.3516C6.25987 10.1609 6.83837 10.6219 6.85173 10.6326C7.04316 10.7916 7.32728 10.7664 7.48759 10.5756C7.64843 10.3842 7.6237 10.0987 7.43234 9.93778C7.3939 9.90544 6.47761 9.14964 5.36585 9.48462C4.81273 9.65126 4.42161 10.0861 4.34503 10.6194C4.27349 11.118 4.48952 11.5977 4.90894 11.8711C4.92892 11.8841 4.94995 11.8956 4.97169 11.9053C4.99595 11.9161 5.57298 12.1729 6.22302 12.4127C6.42464 12.487 6.88648 12.6996 6.82103 13.0665C6.7738 13.3311 6.45915 13.6048 6.01448 13.6048C5.5762 13.6048 5.15374 13.4273 4.88433 13.1301C4.7164 12.9448 4.43011 12.9308 4.24489 13.0987C4.05962 13.2666 4.04556 13.5529 4.21349 13.7381C4.65165 14.2216 5.32495 14.5102 6.01448 14.5102C6.86544 14.5102 7.57946 13.97 7.71235 13.2256C7.81191 12.6684 7.55527 11.939 6.53638 11.5632Z" fill="#EAF6FF"/>
<path d="M14.7096 9.39941C13.3005 9.39941 12.1541 10.5458 12.1541 11.9549C12.1541 13.3639 13.3004 14.5103 14.7096 14.5103C16.1188 14.5103 17.2652 13.364 17.2652 11.9549C17.2652 10.5457 16.1188 9.39941 14.7096 9.39941ZM14.7096 13.6049C13.7997 13.6049 13.0595 12.8647 13.0595 11.9549C13.0595 11.045 13.7997 10.3049 14.7096 10.3049C15.6195 10.3049 16.3597 11.0451 16.3597 11.9549C16.3597 12.8646 15.6195 13.6049 14.7096 13.6049Z" fill="#EAF6FF"/>
<path d="M28.4266 11.4979C28.4266 11.618 28.2915 12.0835 28.2915 12.0835L27.5032 12.8712C27.4151 12.9599 27.2992 13.004 27.1833 13.004C27.0674 13.004 26.9515 12.9599 26.8633 12.8712C26.6865 12.6944 26.6865 12.4082 26.8633 12.2313L27.5968 11.4979L26.8633 10.7645C26.6865 10.5877 26.6865 10.3009 26.8633 10.1241C27.0396 9.94725 27.3263 9.94725 27.5032 10.1241L28.2915 10.9118C28.2915 10.9118 28.4266 11.3778 28.4266 11.4979Z" fill="#D8ECFE"/>
<path d="M28.6893 11.498C28.6893 11.6181 28.6416 11.7328 28.5571 11.8179L28.2915 12.0835V10.9119L28.5571 11.1775C28.6416 11.2625 28.6893 11.3779 28.6893 11.498Z" fill="#C4E2FF"/>
</g>
<defs>
<clipPath id="clip0_1245_611">
<rect width="30" height="30" fill="white" transform="translate(0.00952148 0.00976562)"/>
</clipPath>
</defs>
</svg>
