<svg width="30" height="30" viewBox="0 0 30 30" fill="none" xmlns="http://www.w3.org/2000/svg">
<path d="M27.4316 2.82227H2.58789C2.07012 2.82227 1.65039 3.242 1.65039 3.75977V26.2598C1.65039 26.7775 2.07012 27.1973 2.58789 27.1973H27.4316C27.9494 27.1973 28.3691 26.7775 28.3691 26.2598V3.75977C28.3691 3.242 27.9494 2.82227 27.4316 2.82227Z" fill="#E9F4FF"/>
<path d="M27.4316 2.82227H2.58789C2.33925 2.82227 2.10079 2.92104 1.92498 3.09685C1.74916 3.27267 1.65039 3.51113 1.65039 3.75977V7.97852H28.3691V3.75977C28.3691 3.51113 28.2704 3.27267 28.0946 3.09685C27.9187 2.92104 27.6803 2.82227 27.4316 2.82227Z" fill="#808CFF"/>
<path d="M4.22852 5.98633C4.55212 5.98633 4.81445 5.72399 4.81445 5.40039C4.81445 5.07679 4.55212 4.81445 4.22852 4.81445C3.90491 4.81445 3.64258 5.07679 3.64258 5.40039C3.64258 5.72399 3.90491 5.98633 4.22852 5.98633Z" fill="#F95353"/>
<path d="M6.57227 5.98633C6.89587 5.98633 7.1582 5.72399 7.1582 5.40039C7.1582 5.07679 6.89587 4.81445 6.57227 4.81445C6.24866 4.81445 5.98633 5.07679 5.98633 5.40039C5.98633 5.72399 6.24866 5.98633 6.57227 5.98633Z" fill="#FFD92E"/>
<path d="M8.91602 5.98633C9.23962 5.98633 9.50195 5.72399 9.50195 5.40039C9.50195 5.07679 9.23962 4.81445 8.91602 4.81445C8.59241 4.81445 8.33008 5.07679 8.33008 5.40039C8.33008 5.72399 8.59241 5.98633 8.91602 5.98633Z" fill="#60D64D"/>
<path d="M6.33789 12.666H14.0723V22.5098H6.33789V12.666Z" fill="#BAD8FF"/>
<path d="M15.9473 12.666H23.6816V16.8848H15.9473V12.666Z" fill="#BAD8FF"/>
<path d="M4.93164 12.8418C4.82286 12.8418 4.71854 12.7986 4.64162 12.7217C4.5647 12.6447 4.52148 12.5404 4.52148 12.4316V11.2598C4.52148 11.151 4.5647 11.0467 4.64162 10.9697C4.71854 10.8928 4.82286 10.8496 4.93164 10.8496H6.10352C6.2123 10.8496 6.31662 10.8928 6.39354 10.9697C6.47046 11.0467 6.51367 11.151 6.51367 11.2598C6.51367 11.3685 6.47046 11.4729 6.39354 11.5498C6.31662 11.6267 6.2123 11.6699 6.10352 11.6699H5.3418V12.4316C5.3418 12.5404 5.29858 12.6447 5.22166 12.7217C5.14475 12.7986 5.04042 12.8418 4.93164 12.8418Z" fill="#BAD8FF"/>
<path d="M25.0879 24.3262H23.916C23.8072 24.3262 23.7029 24.283 23.626 24.206C23.5491 24.1291 23.5059 24.0248 23.5059 23.916C23.5059 23.8072 23.5491 23.7029 23.626 23.626C23.7029 23.5491 23.8072 23.5059 23.916 23.5059H24.6777V22.7441C24.6777 22.6354 24.7209 22.531 24.7979 22.4541C24.8748 22.3772 24.9791 22.334 25.0879 22.334C25.1967 22.334 25.301 22.3772 25.3779 22.4541C25.4548 22.531 25.498 22.6354 25.498 22.7441V23.916C25.498 24.0248 25.4548 24.1291 25.3779 24.206C25.301 24.283 25.1967 24.3262 25.0879 24.3262Z" fill="#BAD8FF"/>
<path d="M25.0879 12.8418C24.9791 12.8418 24.8748 12.7986 24.7979 12.7217C24.7209 12.6447 24.6777 12.5404 24.6777 12.4316V11.6699H23.916C23.8072 11.6699 23.7029 11.6267 23.626 11.5498C23.5491 11.4729 23.5059 11.3685 23.5059 11.2598C23.5059 11.151 23.5491 11.0467 23.626 10.9697C23.7029 10.8928 23.8072 10.8496 23.916 10.8496H25.0879C25.1967 10.8496 25.301 10.8928 25.3779 10.9697C25.4548 11.0467 25.498 11.151 25.498 11.2598V12.4316C25.498 12.5404 25.4548 12.6447 25.3779 12.7217C25.301 12.7986 25.1967 12.8418 25.0879 12.8418Z" fill="#BAD8FF"/>
<path d="M6.10352 24.3262H4.93164C4.82286 24.3262 4.71854 24.283 4.64162 24.206C4.5647 24.1291 4.52148 24.0248 4.52148 23.916V22.7441C4.52148 22.6354 4.5647 22.531 4.64162 22.4541C4.71854 22.3772 4.82286 22.334 4.93164 22.334C5.04042 22.334 5.14475 22.3772 5.22166 22.4541C5.29858 22.531 5.3418 22.6354 5.3418 22.7441V23.5059H6.10352C6.2123 23.5059 6.31662 23.5491 6.39354 23.626C6.47046 23.7029 6.51367 23.8072 6.51367 23.916C6.51367 24.0248 6.47046 24.1291 6.39354 24.206C6.31662 24.283 6.2123 24.3262 6.10352 24.3262Z" fill="#BAD8FF"/>
<path d="M23.6816 19.1699H18.7598C18.651 19.1699 18.5467 19.1267 18.4697 19.0498C18.3928 18.9729 18.3496 18.8685 18.3496 18.7598C18.3496 18.651 18.3928 18.5467 18.4697 18.4697C18.5467 18.3928 18.651 18.3496 18.7598 18.3496H23.6816C23.7904 18.3496 23.8947 18.3928 23.9717 18.4697C24.0486 18.5467 24.0918 18.651 24.0918 18.7598C24.0918 18.8685 24.0486 18.9729 23.9717 19.0498C23.8947 19.1267 23.7904 19.1699 23.6816 19.1699Z" fill="#BAD8FF"/>
<path d="M16.8848 19.1699H15.9473C15.8385 19.1699 15.7342 19.1267 15.6572 19.0498C15.5803 18.9729 15.5371 18.8685 15.5371 18.7598C15.5371 18.651 15.5803 18.5467 15.6572 18.4697C15.7342 18.3928 15.8385 18.3496 15.9473 18.3496H16.8848C16.9935 18.3496 17.0979 18.3928 17.1748 18.4697C17.2517 18.5467 17.2949 18.651 17.2949 18.7598C17.2949 18.8685 17.2517 18.9729 17.1748 19.0498C17.0979 19.1267 16.9935 19.1699 16.8848 19.1699Z" fill="#BAD8FF"/>
<path d="M23.6816 22.9199H22.7441C22.6354 22.9199 22.531 22.8767 22.4541 22.7998C22.3772 22.7229 22.334 22.6185 22.334 22.5098C22.334 22.401 22.3772 22.2967 22.4541 22.2197C22.531 22.1428 22.6354 22.0996 22.7441 22.0996H23.6816C23.7904 22.0996 23.8947 22.1428 23.9717 22.2197C24.0486 22.2967 24.0918 22.401 24.0918 22.5098C24.0918 22.6185 24.0486 22.7229 23.9717 22.7998C23.8947 22.8767 23.7904 22.9199 23.6816 22.9199Z" fill="#BAD8FF"/>
<path d="M23.6816 21.0449H15.9473C15.8385 21.0449 15.7342 21.0017 15.6572 20.9248C15.5803 20.8479 15.5371 20.7435 15.5371 20.6348C15.5371 20.526 15.5803 20.4217 15.6572 20.3447C15.7342 20.2678 15.8385 20.2246 15.9473 20.2246H23.6816C23.7904 20.2246 23.8947 20.2678 23.9717 20.3447C24.0486 20.4217 24.0918 20.526 24.0918 20.6348C24.0918 20.7435 24.0486 20.8479 23.9717 20.9248C23.8947 21.0017 23.7904 21.0449 23.6816 21.0449Z" fill="#BAD8FF"/>
<path d="M20.8691 22.9199H15.9473C15.8385 22.9199 15.7342 22.8767 15.6572 22.7998C15.5803 22.7229 15.5371 22.6185 15.5371 22.5098C15.5371 22.401 15.5803 22.2967 15.6572 22.2197C15.7342 22.1428 15.8385 22.0996 15.9473 22.0996H20.8691C20.9779 22.0996 21.0822 22.1428 21.1592 22.2197C21.2361 22.2967 21.2793 22.401 21.2793 22.5098C21.2793 22.6185 21.2361 22.7229 21.1592 22.7998C21.0822 22.8767 20.9779 22.9199 20.8691 22.9199Z" fill="#BAD8FF"/>
</svg>
