<svg width="25" height="25" viewBox="0 0 25 25" fill="none" xmlns="http://www.w3.org/2000/svg">
<path d="M10.2699 10.113L9.57788 12.064H10.9609L10.2699 10.113Z" fill="#FFD900"/>
<path d="M12.8076 1.80713C6.18062 1.80713 0.807617 6.01513 0.807617 11.2061C0.807617 14.5621 3.05362 17.5071 6.43262 19.1691C5.13362 23.6191 5.09962 23.6391 5.31962 23.7681C5.59562 23.9291 5.95362 23.7631 10.6766 20.4571C11.3686 20.5541 12.0806 20.6051 12.8076 20.6051C19.4346 20.6051 24.8076 16.3971 24.8076 11.2061C24.8076 6.01513 19.4346 1.80713 12.8076 1.80713ZM6.86562 13.8301C6.86562 14.1921 6.55462 14.4871 6.17362 14.4871C5.79262 14.4871 5.48162 14.1921 5.48162 13.8301V9.74414H4.40162C4.02662 9.74414 3.72262 9.44213 3.72262 9.07113C3.72262 8.70013 4.02562 8.39713 4.40062 8.39713H7.94562C8.32062 8.39713 8.62462 8.69913 8.62462 9.07013C8.62462 9.44113 8.31962 9.74414 7.94562 9.74414H6.86562V13.8301ZM12.2436 14.4781C11.5236 14.4781 11.6566 13.9131 11.3246 13.2831H9.21362C8.88462 13.9081 9.01362 14.4781 8.29462 14.4781C7.60162 14.4791 7.47962 14.0571 7.69062 13.4071L9.34662 9.07714C9.46362 8.74714 9.81762 8.40813 10.2686 8.39813C10.7206 8.40813 11.0756 8.74714 11.1916 9.07714C12.2846 12.4671 13.8456 14.4791 12.2436 14.4781ZM16.1826 14.3861H13.9616C12.8026 14.3861 13.5076 12.8211 13.2986 9.08513C13.2986 8.70613 13.6156 8.39713 14.0056 8.39713C14.3956 8.39713 14.7126 8.70513 14.7126 9.08513V13.1251H16.1836C16.5496 13.1251 16.8466 13.4081 16.8466 13.7551C16.8456 14.1031 16.5486 14.3861 16.1826 14.3861ZM21.6016 13.8681C21.5766 14.0491 21.4796 14.2121 21.3326 14.3221C20.3776 15.0431 19.6716 12.9411 18.7396 12.0511L18.4996 12.2901V13.7901C18.4996 14.1701 18.1896 14.4781 17.8066 14.4781C17.4246 14.4781 17.1146 14.1701 17.1146 13.7901V9.08513C17.1146 8.70613 17.4246 8.39713 17.8066 8.39713C18.1886 8.39713 18.4986 8.70513 18.4986 9.08513V10.5631C19.7756 9.60513 20.4836 7.89313 21.2906 8.69413C22.0826 9.48014 20.4426 10.1681 19.7636 11.1161C21.3676 13.3281 21.6726 13.3831 21.6016 13.8681Z" fill="#FFD900"/>
</svg>
