<svg width="50" height="51" viewBox="0 0 50 51" fill="none" xmlns="http://www.w3.org/2000/svg">
<mask id="mask0_1245_154" style="mask-type:alpha" maskUnits="userSpaceOnUse" x="0" y="0" width="50" height="51">
<rect y="0.5" width="50" height="50" fill="#D9D9D9"/>
</mask>
<g mask="url(#mask0_1245_154)">
<path d="M29.1963 38.7154L25.9458 35.5045L33.7244 27.7258H7.50879V23.1347H33.7244L25.9109 15.3019L29.1614 12.1107L42.5104 25.4305L29.1963 38.7154Z" fill="#050505"/>
<path d="M29.1963 38.7154L25.9458 35.5045L33.7244 27.7258H7.50879V23.1347H33.7244L25.9109 15.3019L29.1614 12.1107L42.5104 25.4305L29.1963 38.7154Z" fill="black" fill-opacity="0.2"/>
<path d="M29.1963 38.7154L25.9458 35.5045L33.7244 27.7258H7.50879V23.1347H33.7244L25.9109 15.3019L29.1614 12.1107L42.5104 25.4305L29.1963 38.7154Z" fill="black" fill-opacity="0.2"/>
<path d="M29.1963 38.7154L25.9458 35.5045L33.7244 27.7258H7.50879V23.1347H33.7244L25.9109 15.3019L29.1614 12.1107L42.5104 25.4305L29.1963 38.7154Z" fill="black" fill-opacity="0.2"/>
<path d="M29.1963 38.7154L25.9458 35.5045L33.7244 27.7258H7.50879V23.1347H33.7244L25.9109 15.3019L29.1614 12.1107L42.5104 25.4305L29.1963 38.7154Z" fill="black" fill-opacity="0.2"/>
</g>
</svg>
