<svg width="30" height="30" viewBox="0 0 30 30" fill="none" xmlns="http://www.w3.org/2000/svg">
<path d="M7.2192 12.376C6.91957 12.376 6.65324 12.494 6.45348 12.7133C6.23708 12.9326 6.13721 13.2024 6.13721 13.5229C6.13721 13.8434 6.23708 14.0964 6.45348 14.3325C6.66988 14.5518 6.91957 14.6698 7.2192 14.6698C7.51883 14.6698 7.78517 14.5518 8.00157 14.3325C8.21797 14.1132 8.33449 13.8434 8.33449 13.5229C8.33449 13.2024 8.21797 12.9326 8.00157 12.7133C7.78517 12.4772 7.53548 12.376 7.2192 12.376Z" fill="#03C75A"/>
<path d="M16.5576 12.3589C16.258 12.3589 15.9916 12.477 15.7919 12.6962C15.5755 12.9155 15.4756 13.1853 15.4756 13.5058C15.4756 13.8263 15.5755 14.0793 15.7919 14.3154C16.0083 14.5347 16.258 14.6527 16.5576 14.6527C16.8572 14.6527 17.1236 14.5347 17.34 14.3154C17.5563 14.0961 17.6729 13.8263 17.6729 13.5058C17.6729 13.1853 17.5563 12.9323 17.34 12.6962C17.1402 12.4601 16.8739 12.3589 16.5576 12.3589Z" fill="#03C75A"/>
<path d="M22.7998 12.376C22.5001 12.376 22.2338 12.494 22.0341 12.7133C21.8177 12.9326 21.7178 13.2024 21.7178 13.5229C21.7178 13.8434 21.8177 14.0964 22.0341 14.3325C22.2505 14.5518 22.5001 14.6698 22.7998 14.6698C23.0994 14.6698 23.3657 14.5518 23.5821 14.3325C23.7985 14.1132 23.9151 13.8434 23.9151 13.5229C23.9151 13.2024 23.7985 12.9326 23.5821 12.7133C23.3657 12.4772 23.0994 12.376 22.7998 12.376Z" fill="#03C75A"/>
<path d="M25.5632 4.04395H4.45588C2.84121 4.04395 1.50952 5.39327 1.50952 7.02933V19.1227C1.50952 20.7587 2.84121 22.108 4.45588 22.108H12.7457C12.7457 22.108 14.3437 26.5439 14.9263 26.5439C15.5089 26.5439 17.2401 22.108 17.2401 22.108H25.5632C27.1778 22.108 28.5095 20.7587 28.5095 19.1227V7.02933C28.5095 5.39327 27.1778 4.04395 25.5632 4.04395ZM9.34984 15.2096C8.93369 15.6819 8.28449 15.8843 7.58535 15.8843C6.9528 15.8843 6.48671 15.6987 6.15379 15.4289H6.13714V15.7662H4.55576V8.76658H6.13714V11.4484H6.17043C6.60323 11.0773 7.1692 10.9592 7.83505 10.9255C8.40101 10.9086 9.00027 11.2628 9.36649 11.6845C9.71606 12.1062 9.98239 12.764 9.98239 13.4892C9.98239 14.282 9.78264 14.7373 9.34984 15.2096ZM12.7623 15.8337H11.1476C11.1476 15.8337 11.1476 12.1568 11.1476 11.499C11.1476 10.5038 10.3653 10.3689 10.3653 10.3689V8.63165C10.3653 8.63165 12.6291 8.76658 12.7623 11.5496C12.7623 12.3423 12.7623 15.8337 12.7623 15.8337ZM19.1045 14.5012C18.9713 14.8217 18.7715 15.0915 18.5052 15.3445C18.2555 15.5807 17.9559 15.7662 17.623 15.9011C17.29 16.0361 16.9405 16.1035 16.5743 16.1035C16.208 16.1035 15.8585 16.0361 15.5422 15.9011C15.2093 15.7662 14.9096 15.5807 14.66 15.3445C14.3936 15.0915 14.1939 14.8048 14.0607 14.5012C13.9275 14.1976 13.8609 13.8603 13.8609 13.5061C13.8609 13.1519 13.9275 12.8314 14.0607 12.511C14.1939 12.2074 14.3936 11.9206 14.66 11.6676C14.9263 11.4315 15.2093 11.246 15.5422 11.111C15.8751 10.9761 16.2247 10.9086 16.5743 10.9086C16.9405 10.9086 17.29 10.9761 17.623 11.111C17.9559 11.246 18.2555 11.4315 18.5052 11.6676C18.7715 11.9206 18.9547 12.1905 19.1045 12.511C19.2376 12.8314 19.3042 13.1519 19.3042 13.5061C19.3042 13.8603 19.2376 14.1808 19.1045 14.5012ZM25.4633 15.1927C25.4633 16.424 25.2302 17.1661 24.6976 17.689C24.0484 18.3131 23.1328 18.3468 22.3671 18.2456V16.9806C23.0163 17.0481 23.8985 16.6095 23.8985 15.7662V15.4457H23.8819C23.5157 15.9517 22.9997 16.1373 22.2839 16.1373C21.6347 16.1373 21.0687 15.9011 20.6858 15.4457C20.303 14.9903 20.1199 14.3832 20.1199 13.6242C20.1199 12.764 20.3363 12.0893 20.7524 11.5833C21.1852 11.0773 21.7845 10.8412 22.4836 10.8412C23.0995 10.8412 23.499 10.993 23.8819 11.3472H23.8985V10.9592H25.4799V15.1927H25.4633Z" fill="#03C75A"/>
</svg>
