{"accessors":[{"bufferView":0,"componentType":5126,"count":259962,"max":[228.17999267578125,0.0,30.0],"min":[2.7914178299837545e-15,-43.13999938964844,0.0],"type":"VEC3"},{"bufferView":1,"componentType":5126,"count":259962,"type":"VEC3"},{"bufferView":2,"componentType":5125,"count":259962,"type":"SCALAR"},{"bufferView":3,"componentType":5126,"count":614,"max":[500.0,750.0,312.5],"min":[-500.0,-2.842170943040401e-14,-687.5],"type":"VEC3"},{"bufferView":4,"componentType":5126,"count":614,"type":"VEC3"},{"bufferView":5,"componentType":5125,"count":3192,"type":"SCALAR"}],"asset":{"generator":"Luxion KeyShot","version":"2.0"},"bufferViews":[{"buffer":0,"byteLength":3119544,"byteOffset":0,"byteStride":12},{"buffer":0,"byteLength":3119544,"byteOffset":3119544,"byteStride":12},{"buffer":0,"byteLength":1039848,"byteOffset":6239088},{"buffer":0,"byteLength":7368,"byteOffset":7278936,"byteStride":12},{"buffer":0,"byteLength":7368,"byteOffset":7286304,"byteStride":12},{"buffer":0,"byteLength":12768,"byteOffset":7293672}],"buffers":[{"byteLength":7306440,"uri":"./wacus_resources/wacus.bin"}],"cameras":[{"name":"active","perspective":{"aspectRatio":1.0,"yfov":0.6911154697478635,"zfar":0.5,"znear":0.0010000000474974513},"type":"perspective"},{"name":"active","perspective":{"aspectRatio":1.0,"yfov":0.6911154697478635,"zfar":0.94172203540802,"znear":0.0010000000474974513},"type":"perspective"},{"name":"SetCamera","perspective":{"aspectRatio":1.0,"yfov":0.6911154697478635,"zfar":0.936894416809082,"znear":0.0010000000474974513},"type":"perspective"}],"extensionsUsed":["KHR_materials_transmission","KHR_materials_ior"],"materials":[{"alphaMode":"MASK","doubleSided":true,"extensions":{"KHR_materials_ior":{"ior":1.7999999523162842},"KHR_materials_transmission":{"transmissionFactor":1.0}},"name":"Gem Stone Crystal #1","pbrMetallicRoughness":{"baseColorFactor":[1.0,1.0,1.0,1.0],"metallicFactor":0.0,"roughnessFactor":0.0}},{"doubleSided":true,"name":"Backdrop Ramp Material","pbrMetallicRoughness":{"baseColorFactor":[0.07744109630584717,0.07856342941522598,0.08080810308456421,1.0],"metallicFactor":0.0,"roughnessFactor":1.0}}],"meshes":[{"name":"mesh-mesh-mesh","primitives":[{"attributes":{"NORMAL":1,"POSITION":0},"indices":2,"material":0,"mode":4}]},{"name":"Backdrop Ramp-mesh","primitives":[{"attributes":{"NORMAL":4,"POSITION":3},"indices":5,"material":1,"mode":4}]}],"nodes":[{"camera":0,"name":"active"},{"camera":1,"matrix":[0.9990849384158367,-1.8224426348578682e-07,0.042770181004019914,0.0,0.0020816474560136585,0.998815121158378,-0.04862173933454526,0.0,-0.04271949455142021,0.04866627976298332,0.9979011416435242,0.0,-0.017957651987671852,0.04202745482325554,0.41947969794273376,1.0],"name":"active"},{"camera":2,"matrix":[0.9990849384158367,-1.8224426348578682e-07,0.042770181004019914,0.0,0.0020816474560136585,0.998815121158378,-0.04862173933454526,0.0,-0.04271949455142021,0.04866627976298332,0.9979011416435242,0.0,-0.017751419916749,0.04179251566529274,0.41466224193573,1.0],"name":"SetCamera"},{"mesh":0,"name":"mesh-mesh"},{"children":[3],"name":"mesh"},{"children":[4],"matrix":[1.0,0.0,0.0,0.0,0.0,1.0,0.0,0.0,0.0,0.0,1.0,0.0,-114.08999633789063,43.13999938964844,-15.0,1.0],"name":"11"},{"children":[5],"name":"Default"},{"children":[6],"matrix":[0.0010000000474974513,0.0,0.0,0.0,0.0,0.0010000000474974513,0.0,0.0,0.0,0.0,0.0010000000474974513,0.0,0.0,0.0,0.0,1.0],"name":"lux_root"},{"children":[7],"name":"wacus"},{"matrix":[0.0009999999999999998,0.0,0.0,0.0,0.0,0.0009999999999999998,0.0,0.0,0.0,0.0,0.0009999999999999998,0.0,1.3877787807814457e-17,0.0014999999999999996,0.18749999999999978,0.9999999999999999],"mesh":1,"name":"Backdrop Ramp"},{"children":[8,9],"name":"Default"},{"children":[10],"name":"lux_root"}],"scenes":[{"nodes":[0,1,2,11]}]}