<svg width="476" height="477" viewBox="0 0 476 477" fill="none" xmlns="http://www.w3.org/2000/svg">
<g opacity="0.4" clip-path="url(#clip0_3201_61)">
<path d="M98.4406 401.115L79.0689 411.673L77.0788 409.712L85.2497 394.128L69.8088 402.56L67.8188 400.599L78.038 381.043L80.0863 383.058L71.8034 398.647L87.2039 390.062L89.306 392.131L80.9872 407.756L96.446 399.154L98.4361 401.115H98.4406Z" fill="#FF5500"/>
<path d="M100.807 422.847L92.811 416.6L87.939 419.418L85.6531 417.632L105.486 406.338L107.79 408.137L101.636 430.125L99.2473 428.258L100.794 422.842L100.807 422.847ZM101.547 420.311L104.599 409.753L95.0879 415.268L101.547 420.316V420.311Z" fill="#FF5500"/>
<path d="M111.192 423.96C114.54 418.53 120.981 417.027 126.404 420.384C131.043 423.251 132.585 427.927 131.2 432.275L128.802 430.794C129.605 427.788 128.377 424.611 125.105 422.587C120.981 420.038 116.149 421.2 113.545 425.418C110.955 429.614 112.089 434.496 116.19 437.036C119.551 439.114 123.276 438.692 125.508 436.538L127.906 438.019C124.809 441.281 119.556 442.12 114.805 439.181C109.381 435.829 107.844 429.39 111.197 423.96H111.192Z" fill="#FF5500"/>
<path d="M141.984 429.775L136.911 440.67C135.118 444.516 136.149 448.11 139.775 449.802C143.401 451.494 146.789 449.963 148.582 446.118L153.656 435.223L156.161 436.394L151.087 447.289C148.64 452.548 143.768 454.46 138.708 452.099C133.625 449.726 131.958 444.758 134.405 439.504L139.479 428.608L141.984 429.78V429.775Z" fill="#FF5500"/>
<path d="M175.116 449.272L172.422 448.353C172.87 446.136 171.503 443.861 168.388 442.797C165.246 441.725 163.037 442.416 162.423 444.215C161.714 446.288 163.256 447.814 167.21 450.17C171.763 452.894 173.086 455.465 172.073 458.435C170.849 462.03 166.582 463.021 162.145 461.505C157.483 459.912 154.987 456.219 156.031 452.256L158.725 453.176C158.174 455.689 159.756 458.153 163.095 459.293C166.085 460.316 168.675 459.665 169.352 457.668C170.109 455.447 168.595 453.926 164.574 451.521C160.383 449.03 158.644 446.625 159.778 443.309C160.908 439.988 164.865 439.086 169.276 440.594C173.664 442.093 176.053 445.696 175.111 449.272H175.116Z" fill="#FF5500"/>
<path d="M193.811 448.003L199.427 463.511L209.857 450.74L212.246 451.149L208.7 471.97L205.975 471.503L208.588 456.143L199.871 466.854L197.899 466.518L193.219 453.522L190.606 468.883L187.881 468.416L191.426 447.595L193.815 448.003H193.811Z" fill="#FF5500"/>
<path d="M233.406 452.508L233.267 454.958L221.067 454.258L220.686 460.89L231.967 461.536L231.828 463.986L220.547 463.34L220.139 470.448L232.577 471.162L232.438 473.612L217.239 472.741L218.445 451.655L233.406 452.512V452.508Z" fill="#FF5500"/>
<path d="M246.413 452.261C253.674 451.929 258.08 456.003 258.367 462.299C258.654 468.595 254.638 473.028 247.377 473.36L239.905 473.701L238.941 452.602L246.413 452.261ZM255.579 462.425C255.346 457.287 251.948 454.487 246.606 454.734L241.819 454.953L242.554 471.072L247.341 470.852C252.683 470.61 255.812 467.563 255.579 462.425Z" fill="#FF5500"/>
<path d="M268.824 471.534L266.08 471.879L263.463 450.924L266.206 450.578L268.824 471.534Z" fill="#FF5500"/>
<path d="M273.915 460.365C272.602 454.123 276.228 448.586 282.463 447.271C287.796 446.145 292.135 448.465 294.129 452.571L291.373 453.154C289.885 450.426 286.806 448.972 283.045 449.766C278.303 450.767 275.605 454.944 276.627 459.795C277.644 464.619 281.831 467.374 286.546 466.378C290.409 465.561 292.821 462.685 292.946 459.584L295.703 459.001C295.707 463.502 292.48 467.738 287.016 468.891C280.782 470.206 275.233 466.607 273.92 460.365H273.915Z" fill="#FF5500"/>
<path d="M314.64 455.258L305.007 458.435L304.64 464.053L301.888 464.96L303.542 442.173L306.321 441.258L321.152 458.606L318.275 459.553L314.64 455.254V455.258ZM312.945 453.234L305.877 444.821L305.164 455.801L312.945 453.234Z" fill="#FF5500"/>
<path d="M328.879 452.593L339.47 447.882L340.488 450.17L327.373 456.008L318.803 436.708L321.331 435.582L328.884 452.593H328.879Z" fill="#FF5500"/>
<path d="M358.358 429.91L350.465 434.675L349.241 432.642L357.134 427.877L358.358 429.91Z" fill="#FF5500"/>
<path d="M378.635 399.805L391.844 416.269L389.688 418.001L383.718 410.561L374.171 418.239L380.141 425.678L377.985 427.411L364.776 410.947L366.932 409.215L372.589 416.264L382.136 408.586L376.479 401.537L378.635 399.805Z" fill="#FF5500"/>
<path d="M390.159 403.74C385.614 399.266 385.591 392.629 390.078 388.061C394.565 383.489 401.212 383.377 405.756 387.851C410.301 392.324 410.324 398.961 405.837 403.529C401.35 408.102 394.703 408.214 390.159 403.74ZM403.816 389.825C400.266 386.334 395.255 386.397 391.875 389.838C388.496 393.28 388.541 398.279 392.09 401.77C395.622 405.243 400.651 405.198 404.031 401.757C407.392 398.333 407.348 393.298 403.816 389.825Z" fill="#FF5500"/>
<path d="M403.125 374.519L419.458 376.735L412.995 361.559L414.465 359.63L431.246 372.437L429.57 374.64L417.19 365.19L422.623 377.893L421.408 379.486L407.737 377.606L420.117 387.056L418.441 389.26L401.66 376.453L403.13 374.523L403.125 374.519Z" fill="#FF5500"/>
<path d="M425.491 341.501L427.593 342.761L421.314 353.257L427.006 356.672L432.81 346.966L434.912 348.227L429.108 357.933L435.208 361.59L441.609 350.888L443.711 352.149L435.89 365.225L417.791 354.37L425.491 341.496V341.501Z" fill="#FF5500"/>
<path d="M431.322 329.749C433.666 324.791 437.682 323.135 441.658 325.02C445.634 326.904 446.902 331.064 444.558 336.018L442.541 340.285L448.372 343.05L447.189 345.554L428.118 336.521L431.318 329.754L431.322 329.749ZM440.475 327.524C437.642 326.182 435.128 327.559 433.492 331.015L431.564 335.089L440.278 339.217L442.205 335.143C443.836 331.688 443.307 328.87 440.475 327.524Z" fill="#FF5500"/>
<path d="M455.58 312.149L452.124 321.694L456.306 325.459L455.32 328.187L438.453 312.805L439.448 310.054L462.235 309.103L461.205 311.952L455.584 312.154L455.58 312.149ZM452.944 312.23L441.972 312.594L450.152 319.939L452.944 312.23Z" fill="#FF5500"/>
<path d="M453.41 301.963C447.211 300.469 443.76 294.891 445.271 288.609C446.53 283.381 450.519 280.191 454.697 280.061L453.993 282.982C451.205 283.206 448.587 285.638 447.74 289.152C446.597 293.895 449.242 298.113 454.056 299.275C458.896 300.442 463.19 297.898 464.347 293.105C465.359 288.901 463.347 285.104 459.708 283.902L457.74 292.078L455.409 291.517L458.067 280.469L458.99 280.693C465.032 282.152 468.174 287.792 466.731 293.787C465.22 300.069 459.609 303.462 453.41 301.968V301.963Z" fill="#FF5500"/>
<path d="M450.949 258.006L453.379 258.315L451.837 270.454L458.421 271.293L459.846 260.07L462.276 260.38L460.85 271.602L467.905 272.5L469.479 260.128L471.908 260.438L469.985 275.556L449.058 272.89L450.949 258.006Z" fill="#FF5500"/>
</g>
<defs>
<clipPath id="clip0_3201_61">
<rect width="476" height="477" fill="white"/>
</clipPath>
</defs>
</svg>
