<svg width="131" height="22" viewBox="0 0 131 22" fill="none" xmlns="http://www.w3.org/2000/svg">
<g clip-path="url(#clip0_677_764)">
<path d="M34.3949 0.503189L27.3728 21.4968H20.9601L17.1639 9.49328L13.4013 21.4968H7.02211L0 0.503189H6.73698L10.4661 14.0107L14.1169 0.503189H20.6358L24.3258 14.0834L28.0549 0.503189H34.3949Z" fill="white"/>
<path d="M35.2949 10.9972C35.2949 4.61806 39.4881 1.52588e-05 45.5038 1.52588e-05C48.2601 1.52588e-05 50.2672 0.967232 51.5252 2.65008V0.503192H57.9043V21.4968H51.5252V19.35C50.2728 21.0328 48.2657 22 45.5038 22C39.4825 22 35.2949 17.3764 35.2949 11.0028V10.9972ZM51.6314 10.9972C51.6314 7.7713 49.6243 5.4455 46.5102 5.4455C43.3961 5.4455 41.5287 7.77689 41.5287 10.9972C41.5287 14.2176 43.4632 16.5489 46.5102 16.5489C49.5572 16.5489 51.6314 14.2176 51.6314 10.9972Z" fill="white"/>
<path d="M72.7705 22C66.2851 22 61.6279 17.3764 61.6279 11.0028C61.6279 4.62924 66.2851 1.52588e-05 72.7705 1.52588e-05C78.2495 1.52588e-05 82.37 3.51107 83.1248 7.98934H76.6785C76.1753 6.55808 74.7776 5.55173 72.7705 5.55173C69.7962 5.55173 67.8617 7.84398 67.8617 10.9972C67.8617 14.1505 69.7962 16.4427 72.7705 16.4427C74.7385 16.4427 76.2089 15.4419 76.7847 13.9324H83.2366C82.1631 18.8076 78.0762 21.9944 72.7761 21.9944L72.7705 22Z" fill="white"/>
<path d="M86.3516 12.6465V0.503189H92.7307V11.5731C92.7307 14.7599 94.0222 16.5154 96.4207 16.5154C98.8192 16.5154 100.435 14.5418 100.435 11.2824V0.503189H106.814V21.4968H100.435V19.3499C99.1826 21.0328 97.2481 22 94.5589 22C89.6837 22 86.3516 18.4554 86.3516 12.6465Z" fill="white"/>
<path d="M129.993 6.80966H123.832C123.619 5.51818 122.149 4.72987 120.287 4.72987C118.426 4.72987 116.955 5.41195 116.955 6.34003C116.955 7.37993 118.353 7.88311 121.937 8.45337C128.137 9.38705 130.356 11.4277 130.356 15.045C130.356 19.3444 125.839 21.9944 120.505 21.9944C115.172 21.9944 110.867 19.2717 110.654 14.8661H116.815C117.028 16.2302 118.604 17.1248 120.612 17.1248C122.619 17.1248 124.156 16.37 124.156 15.4028C124.156 14.4356 122.725 13.7535 119.102 13.2168C114.087 12.462 110.788 10.9245 110.788 6.65871C110.788 2.39289 115.054 -0.00558472 120.388 -0.00558472C125.722 -0.00558472 129.741 2.64448 129.987 6.80407L129.993 6.80966Z" fill="white"/>
</g>
<defs>
<clipPath id="clip0_677_764">
<rect width="130.351" height="22" fill="white"/>
</clipPath>
</defs>
</svg>
