<svg width="131" height="22" viewBox="0 0 131 22" fill="none" xmlns="http://www.w3.org/2000/svg">
<g clip-path="url(#clip0_1160_191)">
<path d="M34.3954 0.503174L27.3733 21.4968H20.9606L17.1644 9.49326L13.4018 21.4968H7.0226L0.000488281 0.503174H6.73746L10.4666 14.0107L14.1174 0.503174H20.6363L24.3263 14.0834L28.0554 0.503174H34.3954Z" fill="black"/>
<path d="M35.2959 10.9972C35.2959 4.61804 39.489 0 45.5048 0C48.2611 0 50.2682 0.967217 51.5261 2.65006V0.503177H57.9053V21.4968H51.5261V19.3499C50.2738 21.0328 48.2667 22 45.5048 22C39.4834 22 35.2959 17.3764 35.2959 11.0028V10.9972ZM51.6324 10.9972C51.6324 7.77128 49.6253 5.44549 46.5111 5.44549C43.397 5.44549 41.5297 7.77687 41.5297 10.9972C41.5297 14.2175 43.4641 16.5489 46.5111 16.5489C49.5582 16.5489 51.6324 14.2175 51.6324 10.9972Z" fill="black"/>
<path d="M72.771 22C66.2856 22 61.6284 17.3764 61.6284 11.0028C61.6284 4.62923 66.2856 0 72.771 0C78.25 0 82.3705 3.51105 83.1252 7.98933H76.679C76.1758 6.55807 74.7781 5.55172 72.771 5.55172C69.7967 5.55172 67.8622 7.84396 67.8622 10.9972C67.8622 14.1504 69.7967 16.4427 72.771 16.4427C74.739 16.4427 76.2094 15.4419 76.7852 13.9324H83.2371C82.1636 18.8076 78.0767 21.9944 72.7766 21.9944L72.771 22Z" fill="black"/>
<path d="M86.3516 12.6465V0.503174H92.7307V11.5731C92.7307 14.7598 94.0222 16.5154 96.4207 16.5154C98.8192 16.5154 100.435 14.5418 100.435 11.2823V0.503174H106.814V21.4968H100.435V19.3499C99.1826 21.0328 97.2481 22 94.5589 22C89.6837 22 86.3516 18.4554 86.3516 12.6465Z" fill="black"/>
<path d="M129.994 6.80963H123.832C123.62 5.51815 122.15 4.72984 120.288 4.72984C118.426 4.72984 116.956 5.41192 116.956 6.34C116.956 7.3799 118.353 7.88308 121.937 8.45334C128.137 9.38702 130.357 11.4277 130.357 15.045C130.357 19.3443 125.84 21.9944 120.506 21.9944C115.172 21.9944 110.867 19.2716 110.655 14.866H116.816C117.028 16.2302 118.605 17.1248 120.612 17.1248C122.619 17.1248 124.157 16.37 124.157 15.4028C124.157 14.4356 122.725 13.7535 119.103 13.2167C114.088 12.462 110.789 10.9245 110.789 6.65868C110.789 2.39286 115.055 -0.00561523 120.388 -0.00561523C125.722 -0.00561523 129.742 2.64445 129.988 6.80404L129.994 6.80963Z" fill="black"/>
</g>
<defs>
<clipPath id="clip0_1160_191">
<rect width="130.351" height="22" fill="white"/>
</clipPath>
</defs>
</svg>
