<svg width="40" height="40" viewBox="0 0 40 40" fill="none" xmlns="http://www.w3.org/2000/svg">
<mask id="mask0_689_27" style="mask-type:alpha" maskUnits="userSpaceOnUse" x="0" y="0" width="40" height="40">
<rect width="40" height="40" fill="#D9D9D9"/>
</mask>
<g mask="url(#mask0_689_27)">
<path d="M12.2438 33.3333V30.8567L13.6133 29.4871H7.43583C6.75306 29.4871 6.17639 29.2518 5.70583 28.7813C5.23528 28.3107 5 27.734 5 27.0513V9.10251C5 8.41973 5.23528 7.84306 5.70583 7.37251C6.17639 6.90195 6.75306 6.66667 7.43583 6.66667H21.4658V8.07709H7.43583C7.17944 8.07709 6.94444 8.18389 6.73083 8.3975C6.51722 8.61112 6.41042 8.84612 6.41042 9.10251V27.0513C6.41042 27.3076 6.51722 27.5426 6.73083 27.7563C6.94444 27.9701 7.17944 28.0771 7.43583 28.0771H32.5642C32.8206 28.0771 33.0556 27.9701 33.2692 27.7563C33.4828 27.5426 33.5896 27.3076 33.5896 27.0513V21.6729H35V27.0513C35 27.734 34.7647 28.3107 34.2942 28.7813C33.8236 29.2518 33.2469 29.4871 32.5642 29.4871H26.3804L27.7563 30.8567V33.3333H12.2438ZM26.53 23.9892L19.47 16.9296L20.4742 15.9254L25.825 21.3196V6.66667H27.235V21.3196L32.5854 15.9254L33.5896 16.9296L26.53 23.9892Z" fill="#00D0FF"/>
</g>
</svg>
