<svg width="30" height="31" viewBox="0 0 30 31" fill="none" xmlns="http://www.w3.org/2000/svg">
<path d="M15 1.74615C12.2805 1.74615 9.62209 2.55258 7.36092 4.06345C5.09974 5.57432 3.33737 7.72177 2.29666 10.2343C1.25596 12.7467 0.983662 15.5114 1.51421 18.1786C2.04476 20.8459 3.35432 23.2959 5.27729 25.2189C7.20026 27.1418 9.65028 28.4514 12.3175 28.982C14.9848 29.5125 17.7494 29.2402 20.2619 28.1995C22.7744 27.1588 24.9218 25.3964 26.4327 23.1352C27.9436 20.8741 28.75 18.2156 28.75 15.4962C28.75 11.8494 27.3014 8.35206 24.7227 5.77344C22.1441 3.19481 18.6467 1.74615 15 1.74615ZM21.6919 22.188C21.5747 22.3052 21.4157 22.371 21.25 22.371C21.0843 22.371 20.9253 22.3052 20.8081 22.188L18.0419 19.4212C16.9665 20.3121 15.6153 20.8025 14.2188 20.8087C13.0135 20.8087 11.8354 20.4513 10.8333 19.7817C9.83114 19.1121 9.05009 18.1604 8.58886 17.0469C8.12764 15.9334 8.00697 14.7081 8.2421 13.5261C8.47722 12.344 9.0576 11.2582 9.90982 10.406C10.7621 9.55375 11.8479 8.97337 13.0299 8.73825C14.212 8.50312 15.4372 8.62379 16.5507 9.08501C17.6642 9.54624 18.6159 10.3273 19.2855 11.3294C19.9551 12.3315 20.3125 13.5097 20.3125 14.7149C20.3063 16.1112 19.8159 17.4622 18.925 18.5374L21.6913 21.3043C21.8085 21.4214 21.8744 21.5803 21.8746 21.746C21.8747 21.9118 21.809 22.0707 21.6919 22.188Z" fill="#FFC107"/>
<path d="M14.2189 9.87115C13.423 9.87004 12.6391 10.0651 11.9365 10.439C11.2339 10.8129 10.6343 11.3542 10.1907 12.015C9.74704 12.6758 9.47307 13.4357 9.39299 14.2275C9.31291 15.0194 9.42919 15.8188 9.73155 16.555C10.0339 17.2912 10.513 17.9416 11.1265 18.4486C11.74 18.9556 12.469 19.3037 13.249 19.4619C14.029 19.6202 14.836 19.5838 15.5986 19.356C16.3612 19.1282 17.0559 18.7159 17.6213 18.1558C17.6278 18.1487 17.6299 18.1392 17.6369 18.1323C17.6439 18.1254 17.6532 18.1233 17.6603 18.1168C18.3331 17.4381 18.7898 16.5753 18.9729 15.6374C19.1561 14.6995 19.0574 13.7283 18.6893 12.8464C18.3212 11.9644 17.7002 11.2113 16.9047 10.6818C16.1091 10.1523 15.1746 9.87023 14.2189 9.87115Z" fill="#FFC107"/>
</svg>
