<svg width="40" height="40" viewBox="0 0 40 40" fill="none" xmlns="http://www.w3.org/2000/svg">
<g clip-path="url(#clip0_1954_504)">
<path d="M19.9925 39.985C31.0341 39.985 39.985 31.0341 39.985 19.9925C39.985 8.95095 31.0341 0 19.9925 0C8.95095 0 0 8.95095 0 19.9925C0 31.0341 8.95095 39.985 19.9925 39.985Z" fill="#00AB94"/>
<path fill-rule="evenodd" clip-rule="evenodd" d="M19.9925 20.6074C17.3378 20.6074 15.1781 18.4477 15.1781 15.778C15.1781 13.1234 17.3378 10.9636 19.9925 10.9636C22.6622 10.9636 24.8219 13.1234 24.8219 15.778C24.8219 18.4477 22.6622 20.6074 19.9925 20.6074ZM20.0975 32.8009C19.8575 32.8009 19.6475 32.6659 19.5576 32.4559C18.6727 30.5812 17.1429 28.1965 15.643 25.8868C13.1834 22.0622 10.8586 18.4477 10.8586 16.348C10.8586 11.3086 14.9531 7.1991 19.9925 7.1991C25.0469 7.1991 29.1414 11.3086 29.1414 16.348C29.1414 18.3577 26.9366 21.8523 24.6119 25.5418C23.0971 27.9565 21.5223 30.4462 20.6524 32.4409C20.5474 32.6509 20.3375 32.8009 20.0975 32.8009ZM19.9925 8.39895C15.613 8.39895 12.0585 11.9685 12.0585 16.348C12.0585 18.1027 14.3982 21.7323 16.6629 25.2418C17.8928 27.1466 19.1676 29.1264 20.0825 30.8361C21.0124 29.0064 22.3322 26.9366 23.607 24.9119C25.7368 21.5223 27.9415 18.0127 27.9415 16.348C27.9415 11.9685 24.372 8.39895 19.9925 8.39895ZM19.9925 12.1635C17.9977 12.1635 16.378 13.7833 16.378 15.778C16.378 17.7878 17.9977 19.4076 19.9925 19.4076C22.0022 19.4076 23.622 17.7878 23.622 15.778C23.622 13.7833 22.0022 12.1635 19.9925 12.1635Z" fill="white"/>
</g>
<defs>
<clipPath id="clip0_1954_504">
<rect width="40" height="40" fill="white"/>
</clipPath>
</defs>
</svg>
