<svg width="51" height="51" viewBox="0 0 51 51" fill="none" xmlns="http://www.w3.org/2000/svg">
<g clip-path="url(#clip0_1954_499)">
<path fill-rule="evenodd" clip-rule="evenodd" d="M25.4788 0.5C39.2859 0.5 50.4788 11.6929 50.4788 25.5C50.4788 39.3071 39.2859 50.5 25.4788 50.5C11.6716 50.5 0.47876 39.3071 0.47876 25.5C0.47876 11.6929 11.6716 0.5 25.4788 0.5ZM25.4788 14.7625L15.912 21.7133V36.4082H21.3264V28.028C21.3264 27.9333 21.3451 27.8396 21.3813 27.7521C21.4176 27.6646 21.4707 27.5852 21.5376 27.5182C21.6046 27.4513 21.6841 27.3982 21.7716 27.3619C21.8591 27.3257 21.9528 27.3071 22.0475 27.3071H28.9099C29.0046 27.3071 29.0984 27.3257 29.1859 27.3619C29.2734 27.3981 29.3529 27.4512 29.4198 27.5181C29.4868 27.5851 29.5399 27.6646 29.5762 27.7521C29.6124 27.8396 29.631 27.9333 29.631 28.028V36.4082H35.0456V21.7133L25.4788 14.7625ZM28.1891 36.4082V28.7491H22.7684V36.4082H28.1891ZM15.1911 37.8501H35.7666C35.9577 37.85 36.141 37.7741 36.2762 37.6389C36.4113 37.5038 36.4873 37.3204 36.4874 37.1293V22.7608L39.7151 25.1057C39.7916 25.1621 39.8786 25.2029 39.971 25.2256C40.0633 25.2483 40.1593 25.2525 40.2533 25.238C40.3473 25.2234 40.4375 25.1904 40.5187 25.1408C40.5998 25.0913 40.6704 25.0261 40.7263 24.9491C40.7822 24.8722 40.8223 24.7849 40.8443 24.6924C40.8663 24.5998 40.8697 24.5038 40.8545 24.41C40.8392 24.3161 40.8055 24.2261 40.7553 24.1453C40.7051 24.0645 40.6395 23.9945 40.5621 23.9392L25.9022 13.288C25.7791 13.1986 25.6309 13.1504 25.4787 13.1504C25.3266 13.1504 25.1783 13.1986 25.0552 13.288L10.3952 23.9392C10.2405 24.0515 10.1368 24.2207 10.1068 24.4095C10.0769 24.5983 10.1232 24.7913 10.2355 24.946C10.3478 25.1007 10.517 25.2044 10.7058 25.2344C10.8947 25.2643 11.0876 25.218 11.2423 25.1057L14.4701 22.7608V37.1288C14.4701 37.32 14.5461 37.5034 14.6813 37.6385C14.8166 37.7737 15 37.8496 15.1912 37.8496L15.1911 37.8501Z" fill="#8BC34A"/>
</g>
<defs>
<clipPath id="clip0_1954_499">
<rect width="50" height="50" fill="white" transform="translate(0.47876 0.5)"/>
</clipPath>
</defs>
</svg>
