{"accessors":[{"bufferView":0,"componentType":5126,"count":259962,"max":[228.17999267578125,0.0,30.0],"min":[2.7914178299837545e-15,-43.13999938964844,0.0],"type":"VEC3"},{"bufferView":1,"componentType":5126,"count":259962,"type":"VEC3"},{"bufferView":2,"componentType":5125,"count":259962,"type":"SCALAR"}],"asset":{"generator":"Luxion KeyShot","version":"2.0"},"bufferViews":[{"buffer":0,"byteLength":3119544,"byteOffset":0,"byteStride":12},{"buffer":0,"byteLength":3119544,"byteOffset":3119544,"byteStride":12},{"buffer":0,"byteLength":1039848,"byteOffset":6239088}],"buffers":[{"byteLength":7278936,"uri":"./wacus_resources/wacus.bin"}],"cameras":[{"name":"active","perspective":{"aspectRatio":1.0,"yfov":0.6911154697478635,"zfar":543.4370727539063,"znear":499.0555114746094},"type":"perspective"}],"extensionsUsed":["KHR_materials_transmission","KHR_materials_ior"],"materials":[{"alphaMode":"MASK","doubleSided":true,"extensions":{"KHR_materials_ior":{"ior":2.4180002212524414},"KHR_materials_transmission":{"transmissionFactor":1.0}},"name":"Gem Stone Diamond #1","pbrMetallicRoughness":{"baseColorFactor":[1.0,1.0,1.0,1.0],"metallicFactor":0.0,"roughnessFactor":0.0}}],"meshes":[{"name":"mesh-mesh","primitives":[{"attributes":{"NORMAL":1,"POSITION":0},"indices":2,"material":0,"mode":4}]}],"nodes":[{"camera":0,"matrix":[0.0009993424531072304,-1.8176715155249213e-10,-3.625864160637246e-05,0.0,-5.52576125116473e-06,0.0009883184082868403,-0.0001523032083715788,0.0,3.583510965108872e-05,0.00015240341424942018,0.000987668514251709,0.0,0.018678918838500976,0.10100971984863281,0.5148185424804688,1.0],"name":"active"},{"mesh":0,"name":"mesh"},{"children":[1],"matrix":[1.0,0.0,0.0,0.0,0.0,1.0,0.0,0.0,0.0,0.0,1.0,0.0,-114.08999633789063,43.13999938964844,-15.0,1.0],"name":"11"},{"children":[2],"name":"Default"},{"children":[3],"matrix":[0.001,0.0,0.0,0.0,0.0,0.001,0.0,0.0,0.0,0.0,0.001,0.0,0.0,0.0,0.0,1.0],"name":"lux_root"}],"scenes":[{"nodes":[0,4]}]}   